G04*
G04 #@! TF.GenerationSoftware,Altium Limited,Altium Designer,21.0.8 (223)*
G04*
G04 Layer_Color=16711935*
%FSLAX25Y25*%
%MOIN*%
G70*
G04*
G04 #@! TF.SameCoordinates,947A2CD8-D87E-4BA2-AADF-D00DD91F1A07*
G04*
G04*
G04 #@! TF.FilePolarity,Positive*
G04*
G01*
G75*
%ADD134C,0.00394*%
D134*
X235203Y44303D02*
G03*
X235203Y44303I-984J0D01*
G01*
X96644Y382684D02*
X102156D01*
X96644Y370716D02*
X102156D01*
Y382684D01*
X96644Y370716D02*
Y382684D01*
X105544Y348884D02*
X111056D01*
X105544Y336916D02*
X111056D01*
Y348884D01*
X105544Y336916D02*
Y348884D01*
X201016Y79744D02*
X212984D01*
X201016Y85256D02*
X212984D01*
Y79744D02*
Y85256D01*
X201016Y79744D02*
Y85256D01*
X240016Y79744D02*
X251984D01*
X240016Y85256D02*
X251984D01*
Y79744D02*
Y85256D01*
X240016Y79744D02*
Y85256D01*
X121516Y79744D02*
X133484D01*
X121516Y85256D02*
X133484D01*
Y79744D02*
Y85256D01*
X121516Y79744D02*
Y85256D01*
X160516Y79744D02*
X172484D01*
X160516Y85256D02*
X172484D01*
Y79744D02*
Y85256D01*
X160516Y79744D02*
Y85256D01*
X193307Y20551D02*
X198819D01*
X193307Y8583D02*
X198819D01*
X193307D02*
Y20551D01*
X198819Y8583D02*
Y20551D01*
X326055Y73496D02*
Y85504D01*
X332945Y73496D02*
Y85504D01*
X326055D02*
X332945D01*
X326055Y73496D02*
X332945D01*
X338744Y40764D02*
X345146D01*
X338744D02*
Y52284D01*
X345146D01*
Y40764D02*
Y52284D01*
X341406Y40764D02*
X345146Y44504D01*
X231600Y28748D02*
X241837D01*
X231600Y46858D02*
X241837D01*
Y28748D02*
Y46858D01*
X231600Y28748D02*
Y46858D01*
X178737Y311821D02*
Y317332D01*
X166769Y311821D02*
Y317332D01*
X178737D01*
X166769Y311821D02*
X178737D01*
X155344Y301116D02*
X160856D01*
X155344Y313084D02*
X160856D01*
Y301116D02*
Y313084D01*
X155344Y301116D02*
Y313084D01*
X67347Y368114D02*
X135063D01*
X64984Y385043D02*
X137425D01*
Y379925D02*
Y385043D01*
X135063Y379925D02*
X137425D01*
X67347Y368114D02*
Y379925D01*
X64984D02*
X67347D01*
X64984D02*
Y385043D01*
X135063Y368114D02*
Y379925D01*
X138484Y145744D02*
Y151256D01*
X126516Y145744D02*
Y151256D01*
X138484D01*
X126516Y145744D02*
X138484D01*
X97823Y144512D02*
X113177D01*
X97823D02*
Y183488D01*
X113177D01*
Y144512D02*
Y183488D01*
X108177Y144512D02*
X113177Y149512D01*
M02*
