G04*
G04 #@! TF.GenerationSoftware,Altium Limited,Altium Designer,21.0.8 (223)*
G04*
G04 Layer_Color=65535*
%FSLAX25Y25*%
%MOIN*%
G70*
G04*
G04 #@! TF.SameCoordinates,947A2CD8-D87E-4BA2-AADF-D00DD91F1A07*
G04*
G04*
G04 #@! TF.FilePolarity,Positive*
G04*
G01*
G75*
%ADD10C,0.01000*%
%ADD11C,0.00984*%
%ADD12C,0.00591*%
%ADD13C,0.00800*%
%ADD14C,0.00600*%
%ADD15C,0.00400*%
%ADD16C,0.01575*%
%ADD17C,0.00787*%
D10*
X325803Y100756D02*
G03*
X325803Y96756I0J-2000D01*
G01*
Y108756D02*
G03*
X325803Y104756I0J-2000D01*
G01*
D02*
G03*
X325803Y100756I0J-2000D01*
G01*
X36850Y78500D02*
G03*
X36850Y78500I-500J0D01*
G01*
X314000Y61500D02*
G03*
X314000Y61500I-500J0D01*
G01*
X352253Y116800D02*
X360203D01*
X368083Y119330D02*
X371163D01*
X360203D02*
X368083D01*
X352253Y116800D02*
Y119330D01*
X341463D02*
X352253D01*
X360203Y116800D02*
Y119330D01*
X341463Y96200D02*
X371163D01*
Y119330D01*
X341463Y96200D02*
Y119330D01*
X325803Y108756D02*
Y111756D01*
Y93756D02*
Y96756D01*
X311803Y114756D02*
X318803D01*
X311803Y90756D02*
Y114756D01*
Y90756D02*
X318803D01*
X330803D02*
X337803D01*
Y114756D01*
X330803D02*
X337803D01*
X314000Y65000D02*
Y85630D01*
X302000D02*
X303650D01*
X302000Y65000D02*
Y85630D01*
X312252D02*
X314000D01*
X302000Y65000D02*
X304000D01*
X302685Y68500D02*
X304000D01*
X312000Y65000D02*
X314000D01*
X312000Y68500D02*
X313315D01*
X308000Y73800D02*
X309200Y76300D01*
X306800Y76000D02*
X308000Y73800D01*
X306800Y76000D02*
X308200D01*
X308000Y74910D02*
X308200Y76000D01*
X290600Y74000D02*
Y81146D01*
Y61854D02*
Y69000D01*
X299400Y61854D02*
Y69000D01*
Y74000D02*
Y81146D01*
X290600Y61658D02*
X299400D01*
X290600Y81146D02*
X299400D01*
X293138Y-4512D02*
X327862D01*
X293177D02*
Y921D01*
X327860Y-4515D02*
Y805D01*
X293177Y10646D02*
Y15528D01*
X327823Y10835D02*
Y15716D01*
X367854Y83140D02*
X375000D01*
X355709Y83140D02*
X362854Y83140D01*
X355709Y74340D02*
X362854Y74340D01*
X367854D02*
X375000D01*
X355512D02*
Y83140D01*
X375000Y74340D02*
Y83140D01*
X257600Y53500D02*
Y60646D01*
Y41354D02*
Y48500D01*
X266400Y41354D02*
Y48500D01*
Y53500D02*
Y60646D01*
X257600Y41157D02*
X266400D01*
X257600Y60646D02*
X266400D01*
X-2000Y320300D02*
X20800D01*
X-2000Y388400D02*
X20900D01*
X-2000Y320300D02*
Y388400D01*
X20900Y377400D02*
Y388400D01*
X20800Y320300D02*
Y331500D01*
X16700Y331500D02*
X20800Y331500D01*
X16700Y331500D02*
Y340000D01*
X20800Y340000D01*
Y368100D01*
X16700Y368100D02*
X20800Y368100D01*
X16700Y368100D02*
Y377400D01*
X20900D01*
X18800Y297200D02*
X21200Y297200D01*
X18900Y284700D02*
X21200Y284700D01*
X21200Y297200D01*
X21300Y266600D02*
Y277400D01*
X21200Y304900D02*
Y315300D01*
X-2100Y266600D02*
Y315300D01*
X21200D01*
X-2100Y266600D02*
X21300D01*
X18800Y304900D02*
X21200D01*
X18800Y297200D02*
Y304900D01*
X18900Y277400D02*
X21300Y277400D01*
X18900Y284700D02*
X18900Y277400D01*
X164800Y168800D02*
X167200D01*
X164800Y181300D02*
X167100D01*
X164800Y168800D02*
Y181300D01*
X164700Y188600D02*
Y199400D01*
X164800Y150700D02*
Y161100D01*
X188100Y150700D02*
Y199400D01*
X164800Y150700D02*
X188100D01*
X164700Y199400D02*
X188100D01*
X164800Y161100D02*
X167200D01*
Y168800D01*
X164700Y188600D02*
X167100D01*
Y181300D02*
Y188600D01*
X46181Y46500D02*
X49081D01*
X46181Y32500D02*
Y46500D01*
Y32500D02*
X49081D01*
X55181Y36500D02*
Y42400D01*
X50581Y39500D02*
X53181D01*
X46181D02*
X48781D01*
X11657Y193949D02*
Y187950D01*
X11943Y193949D02*
Y187950D01*
X10800Y193949D02*
X13656D01*
X14514Y193663D01*
X15085Y193092D01*
X15370Y192521D01*
X15656Y191664D01*
Y190235D01*
X15370Y189378D01*
X15085Y188807D01*
X14514Y188236D01*
X13656Y187950D01*
X10800D01*
X13656Y193949D02*
X14228Y193663D01*
X14799Y193092D01*
X15085Y192521D01*
X15370Y191664D01*
Y190235D01*
X15085Y189378D01*
X14799Y188807D01*
X14228Y188236D01*
X13656Y187950D01*
X16742Y190235D02*
X20169D01*
Y190807D01*
X19884Y191378D01*
X19598Y191664D01*
X19027Y191949D01*
X18170D01*
X17313Y191664D01*
X16742Y191092D01*
X16456Y190235D01*
Y189664D01*
X16742Y188807D01*
X17313Y188236D01*
X18170Y187950D01*
X18741D01*
X19598Y188236D01*
X20169Y188807D01*
X19884Y190235D02*
Y191092D01*
X19598Y191664D01*
X18170Y191949D02*
X17598Y191664D01*
X17027Y191092D01*
X16742Y190235D01*
Y189664D01*
X17027Y188807D01*
X17598Y188236D01*
X18170Y187950D01*
X23940Y191378D02*
X24226Y191949D01*
Y190807D01*
X23940Y191378D01*
X23654Y191664D01*
X23083Y191949D01*
X21940D01*
X21369Y191664D01*
X21083Y191378D01*
Y190807D01*
X21369Y190521D01*
X21940Y190235D01*
X23369Y189664D01*
X23940Y189378D01*
X24226Y189093D01*
X21083Y191092D02*
X21369Y190807D01*
X21940Y190521D01*
X23369Y189950D01*
X23940Y189664D01*
X24226Y189378D01*
Y188522D01*
X23940Y188236D01*
X23369Y187950D01*
X22226D01*
X21655Y188236D01*
X21369Y188522D01*
X21083Y189093D01*
Y187950D01*
X21369Y188522D01*
X26054Y193949D02*
X25768Y193663D01*
X26054Y193378D01*
X26340Y193663D01*
X26054Y193949D01*
Y191949D02*
Y187950D01*
X26340Y191949D02*
Y187950D01*
X25197Y191949D02*
X26340D01*
X25197Y187950D02*
X27196D01*
X29996Y191949D02*
X29425Y191664D01*
X29139Y191378D01*
X28853Y190807D01*
Y190235D01*
X29139Y189664D01*
X29425Y189378D01*
X29996Y189093D01*
X30567D01*
X31139Y189378D01*
X31424Y189664D01*
X31710Y190235D01*
Y190807D01*
X31424Y191378D01*
X31139Y191664D01*
X30567Y191949D01*
X29996D01*
X29425Y191664D02*
X29139Y191092D01*
Y189950D01*
X29425Y189378D01*
X31139D02*
X31424Y189950D01*
Y191092D01*
X31139Y191664D01*
X31424Y191378D02*
X31710Y191664D01*
X32281Y191949D01*
Y191664D01*
X31710D01*
X29139Y189664D02*
X28853Y189378D01*
X28568Y188807D01*
Y188522D01*
X28853Y187950D01*
X29710Y187665D01*
X31139D01*
X31995Y187379D01*
X32281Y187093D01*
X28568Y188522D02*
X28853Y188236D01*
X29710Y187950D01*
X31139D01*
X31995Y187665D01*
X32281Y187093D01*
Y186808D01*
X31995Y186236D01*
X31139Y185951D01*
X29425D01*
X28568Y186236D01*
X28282Y186808D01*
Y187093D01*
X28568Y187665D01*
X29425Y187950D01*
X34024Y191949D02*
Y187950D01*
X34309Y191949D02*
Y187950D01*
Y191092D02*
X34881Y191664D01*
X35737Y191949D01*
X36309D01*
X37166Y191664D01*
X37451Y191092D01*
Y187950D01*
X36309Y191949D02*
X36880Y191664D01*
X37166Y191092D01*
Y187950D01*
X33167Y191949D02*
X34309D01*
X33167Y187950D02*
X35166D01*
X36309D02*
X38308D01*
X45335Y193949D02*
Y187950D01*
X45621Y193949D02*
Y187950D01*
Y191092D02*
X46192Y191664D01*
X46764Y191949D01*
X47335D01*
X48192Y191664D01*
X48763Y191092D01*
X49049Y190235D01*
Y189664D01*
X48763Y188807D01*
X48192Y188236D01*
X47335Y187950D01*
X46764D01*
X46192Y188236D01*
X45621Y188807D01*
X47335Y191949D02*
X47906Y191664D01*
X48478Y191092D01*
X48763Y190235D01*
Y189664D01*
X48478Y188807D01*
X47906Y188236D01*
X47335Y187950D01*
X44478Y193949D02*
X45621D01*
X50449Y191949D02*
X52162Y187950D01*
X50734Y191949D02*
X52162Y188522D01*
X53877Y191949D02*
X52162Y187950D01*
X51591Y186808D01*
X51020Y186236D01*
X50449Y185951D01*
X50163D01*
X49877Y186236D01*
X50163Y186522D01*
X50449Y186236D01*
X49877Y191949D02*
X51591D01*
X52734D02*
X54448D01*
X61532Y193949D02*
Y187950D01*
X61818Y193949D02*
Y187950D01*
X60675Y193949D02*
X64103D01*
X64960Y193663D01*
X65245Y193378D01*
X65531Y192806D01*
Y192235D01*
X65245Y191664D01*
X64960Y191378D01*
X64103Y191092D01*
X61818D01*
X64103Y193949D02*
X64674Y193663D01*
X64960Y193378D01*
X65245Y192806D01*
Y192235D01*
X64960Y191664D01*
X64674Y191378D01*
X64103Y191092D01*
X60675Y187950D02*
X62675D01*
X63246Y191092D02*
X63817Y190807D01*
X64103Y190521D01*
X64960Y188522D01*
X65245Y188236D01*
X65531D01*
X65817Y188522D01*
X63817Y190807D02*
X64103Y190235D01*
X64674Y188236D01*
X64960Y187950D01*
X65531D01*
X65817Y188522D01*
Y188807D01*
X67445Y193949D02*
X67159Y193663D01*
X67445Y193378D01*
X67731Y193663D01*
X67445Y193949D01*
Y191949D02*
Y187950D01*
X67731Y191949D02*
Y187950D01*
X66588Y191949D02*
X67731D01*
X66588Y187950D02*
X68588D01*
X73101Y191092D02*
X72815Y190807D01*
X73101Y190521D01*
X73387Y190807D01*
Y191092D01*
X72815Y191664D01*
X72244Y191949D01*
X71387D01*
X70530Y191664D01*
X69959Y191092D01*
X69673Y190235D01*
Y189664D01*
X69959Y188807D01*
X70530Y188236D01*
X71387Y187950D01*
X71958D01*
X72815Y188236D01*
X73387Y188807D01*
X71387Y191949D02*
X70816Y191664D01*
X70244Y191092D01*
X69959Y190235D01*
Y189664D01*
X70244Y188807D01*
X70816Y188236D01*
X71387Y187950D01*
X75158Y193949D02*
Y187950D01*
X75443Y193949D02*
Y187950D01*
X78300Y191949D02*
X75443Y189093D01*
X76872Y190235D02*
X78585Y187950D01*
X76586Y190235D02*
X78300Y187950D01*
X74301Y193949D02*
X75443D01*
X77443Y191949D02*
X79157D01*
X74301Y187950D02*
X76300D01*
X77443D02*
X79157D01*
X11086Y181956D02*
X11371Y181670D01*
X11086Y181385D01*
X10800Y181670D01*
Y181956D01*
X11086Y182527D01*
X11371Y182813D01*
X12228Y183099D01*
X13371D01*
X14228Y182813D01*
X14514Y182527D01*
X14799Y181956D01*
Y181385D01*
X14514Y180814D01*
X13656Y180242D01*
X12228Y179671D01*
X11657Y179385D01*
X11086Y178814D01*
X10800Y177957D01*
Y177100D01*
X13371Y183099D02*
X13942Y182813D01*
X14228Y182527D01*
X14514Y181956D01*
Y181385D01*
X14228Y180814D01*
X13371Y180242D01*
X12228Y179671D01*
X10800Y177671D02*
X11086Y177957D01*
X11657D01*
X13085Y177386D01*
X13942D01*
X14514Y177671D01*
X14799Y177957D01*
Y178528D01*
X11657Y177957D02*
X13085Y177100D01*
X14228D01*
X14514Y177386D01*
X14799Y177957D01*
X17399Y183099D02*
X16542Y182813D01*
X15970Y181956D01*
X15685Y180528D01*
Y179671D01*
X15970Y178243D01*
X16542Y177386D01*
X17399Y177100D01*
X17970D01*
X18827Y177386D01*
X19398Y178243D01*
X19684Y179671D01*
Y180528D01*
X19398Y181956D01*
X18827Y182813D01*
X17970Y183099D01*
X17399D01*
X16827Y182813D01*
X16542Y182527D01*
X16256Y181956D01*
X15970Y180528D01*
Y179671D01*
X16256Y178243D01*
X16542Y177671D01*
X16827Y177386D01*
X17399Y177100D01*
X17970D02*
X18541Y177386D01*
X18827Y177671D01*
X19113Y178243D01*
X19398Y179671D01*
Y180528D01*
X19113Y181956D01*
X18827Y182527D01*
X18541Y182813D01*
X17970Y183099D01*
X20855Y181956D02*
X21141Y181670D01*
X20855Y181385D01*
X20569Y181670D01*
Y181956D01*
X20855Y182527D01*
X21141Y182813D01*
X21998Y183099D01*
X23140D01*
X23997Y182813D01*
X24283Y182527D01*
X24568Y181956D01*
Y181385D01*
X24283Y180814D01*
X23426Y180242D01*
X21998Y179671D01*
X21426Y179385D01*
X20855Y178814D01*
X20569Y177957D01*
Y177100D01*
X23140Y183099D02*
X23711Y182813D01*
X23997Y182527D01*
X24283Y181956D01*
Y181385D01*
X23997Y180814D01*
X23140Y180242D01*
X21998Y179671D01*
X20569Y177671D02*
X20855Y177957D01*
X21426D01*
X22855Y177386D01*
X23711D01*
X24283Y177671D01*
X24568Y177957D01*
Y178528D01*
X21426Y177957D02*
X22855Y177100D01*
X23997D01*
X24283Y177386D01*
X24568Y177957D01*
X25740Y181956D02*
X26025Y181670D01*
X25740Y181385D01*
X25454Y181670D01*
Y181956D01*
X25740Y182527D01*
X26025Y182813D01*
X26882Y183099D01*
X28025D01*
X28882Y182813D01*
X29168Y182527D01*
X29453Y181956D01*
Y181385D01*
X29168Y180814D01*
X28310Y180242D01*
X26882Y179671D01*
X26311Y179385D01*
X25740Y178814D01*
X25454Y177957D01*
Y177100D01*
X28025Y183099D02*
X28596Y182813D01*
X28882Y182527D01*
X29168Y181956D01*
Y181385D01*
X28882Y180814D01*
X28025Y180242D01*
X26882Y179671D01*
X25454Y177671D02*
X25740Y177957D01*
X26311D01*
X27739Y177386D01*
X28596D01*
X29168Y177671D01*
X29453Y177957D01*
Y178528D01*
X26311Y177957D02*
X27739Y177100D01*
X28882D01*
X29168Y177386D01*
X29453Y177957D01*
X30339Y179671D02*
X35480D01*
X36252Y181956D02*
X36823Y182242D01*
X37680Y183099D01*
Y177100D01*
X37394Y182813D02*
Y177100D01*
X36252D02*
X38823D01*
X40137Y181956D02*
X40422Y181670D01*
X40137Y181385D01*
X39851Y181670D01*
Y181956D01*
X40137Y182527D01*
X40422Y182813D01*
X41279Y183099D01*
X42422D01*
X43279Y182813D01*
X43564Y182527D01*
X43850Y181956D01*
Y181385D01*
X43564Y180814D01*
X42707Y180242D01*
X41279Y179671D01*
X40708Y179385D01*
X40137Y178814D01*
X39851Y177957D01*
Y177100D01*
X42422Y183099D02*
X42993Y182813D01*
X43279Y182527D01*
X43564Y181956D01*
Y181385D01*
X43279Y180814D01*
X42422Y180242D01*
X41279Y179671D01*
X39851Y177671D02*
X40137Y177957D01*
X40708D01*
X42136Y177386D01*
X42993D01*
X43564Y177671D01*
X43850Y177957D01*
Y178528D01*
X40708Y177957D02*
X42136Y177100D01*
X43279D01*
X43564Y177386D01*
X43850Y177957D01*
X44736Y179671D02*
X49877D01*
X50934Y181956D02*
X51220Y181670D01*
X50934Y181385D01*
X50649Y181670D01*
Y181956D01*
X50934Y182527D01*
X51220Y182813D01*
X52077Y183099D01*
X53219D01*
X54076Y182813D01*
X54362Y182527D01*
X54648Y181956D01*
Y181385D01*
X54362Y180814D01*
X53505Y180242D01*
X52077Y179671D01*
X51506Y179385D01*
X50934Y178814D01*
X50649Y177957D01*
Y177100D01*
X53219Y183099D02*
X53791Y182813D01*
X54076Y182527D01*
X54362Y181956D01*
Y181385D01*
X54076Y180814D01*
X53219Y180242D01*
X52077Y179671D01*
X50649Y177671D02*
X50934Y177957D01*
X51506D01*
X52934Y177386D01*
X53791D01*
X54362Y177671D01*
X54648Y177957D01*
Y178528D01*
X51506Y177957D02*
X52934Y177100D01*
X54076D01*
X54362Y177386D01*
X54648Y177957D01*
X56962Y183099D02*
X56105Y182813D01*
X55819Y182242D01*
Y181385D01*
X56105Y180814D01*
X56962Y180528D01*
X58104D01*
X58961Y180814D01*
X59247Y181385D01*
Y182242D01*
X58961Y182813D01*
X58104Y183099D01*
X56962D01*
X56390Y182813D01*
X56105Y182242D01*
Y181385D01*
X56390Y180814D01*
X56962Y180528D01*
X58104D02*
X58675Y180814D01*
X58961Y181385D01*
Y182242D01*
X58675Y182813D01*
X58104Y183099D01*
X56962Y180528D02*
X56105Y180242D01*
X55819Y179956D01*
X55533Y179385D01*
Y178243D01*
X55819Y177671D01*
X56105Y177386D01*
X56962Y177100D01*
X58104D01*
X58961Y177386D01*
X59247Y177671D01*
X59532Y178243D01*
Y179385D01*
X59247Y179956D01*
X58961Y180242D01*
X58104Y180528D01*
X56962D02*
X56390Y180242D01*
X56105Y179956D01*
X55819Y179385D01*
Y178243D01*
X56105Y177671D01*
X56390Y177386D01*
X56962Y177100D01*
X58104D02*
X58675Y177386D01*
X58961Y177671D01*
X59247Y178243D01*
Y179385D01*
X58961Y179956D01*
X58675Y180242D01*
X58104Y180528D01*
X14799Y205942D02*
X15085Y205085D01*
Y206799D01*
X14799Y205942D01*
X14228Y206513D01*
X13371Y206799D01*
X12800D01*
X11943Y206513D01*
X11371Y205942D01*
X11086Y205370D01*
X10800Y204514D01*
Y203085D01*
X11086Y202228D01*
X11371Y201657D01*
X11943Y201086D01*
X12800Y200800D01*
X13371D01*
X14228Y201086D01*
X14799Y201657D01*
X15085Y202228D01*
X12800Y206799D02*
X12228Y206513D01*
X11657Y205942D01*
X11371Y205370D01*
X11086Y204514D01*
Y203085D01*
X11371Y202228D01*
X11657Y201657D01*
X12228Y201086D01*
X12800Y200800D01*
X16513Y204228D02*
Y203942D01*
X16227D01*
Y204228D01*
X16513Y204514D01*
X17084Y204799D01*
X18227D01*
X18798Y204514D01*
X19084Y204228D01*
X19370Y203657D01*
Y201657D01*
X19655Y201086D01*
X19941Y200800D01*
X19084Y204228D02*
Y201657D01*
X19370Y201086D01*
X19941Y200800D01*
X20227D01*
X19084Y203657D02*
X18798Y203371D01*
X17084Y203085D01*
X16227Y202800D01*
X15942Y202228D01*
Y201657D01*
X16227Y201086D01*
X17084Y200800D01*
X17941D01*
X18513Y201086D01*
X19084Y201657D01*
X17084Y203085D02*
X16513Y202800D01*
X16227Y202228D01*
Y201657D01*
X16513Y201086D01*
X17084Y200800D01*
X21940Y206799D02*
Y200800D01*
X22226Y206799D02*
Y200800D01*
X21083Y206799D02*
X22226D01*
X21083Y200800D02*
X23083D01*
X25883Y204799D02*
X25025Y204514D01*
X24454Y203942D01*
X24169Y203085D01*
Y202514D01*
X24454Y201657D01*
X25025Y201086D01*
X25883Y200800D01*
X26454D01*
X27311Y201086D01*
X27882Y201657D01*
X28168Y202514D01*
Y203085D01*
X27882Y203942D01*
X27311Y204514D01*
X26454Y204799D01*
X25883D01*
X25311Y204514D01*
X24740Y203942D01*
X24454Y203085D01*
Y202514D01*
X24740Y201657D01*
X25311Y201086D01*
X25883Y200800D01*
X26454D02*
X27025Y201086D01*
X27596Y201657D01*
X27882Y202514D01*
Y203085D01*
X27596Y203942D01*
X27025Y204514D01*
X26454Y204799D01*
X29910D02*
Y200800D01*
X30196Y204799D02*
Y200800D01*
Y203085D02*
X30481Y203942D01*
X31053Y204514D01*
X31624Y204799D01*
X32481D01*
X32767Y204514D01*
Y204228D01*
X32481Y203942D01*
X32195Y204228D01*
X32481Y204514D01*
X29053Y204799D02*
X30196D01*
X29053Y200800D02*
X31053D01*
X34538Y206799D02*
X34252Y206513D01*
X34538Y206227D01*
X34823Y206513D01*
X34538Y206799D01*
Y204799D02*
Y200800D01*
X34823Y204799D02*
Y200800D01*
X33681Y204799D02*
X34823D01*
X33681Y200800D02*
X35680D01*
X37051Y203085D02*
X40479D01*
Y203657D01*
X40194Y204228D01*
X39908Y204514D01*
X39337Y204799D01*
X38480D01*
X37623Y204514D01*
X37051Y203942D01*
X36766Y203085D01*
Y202514D01*
X37051Y201657D01*
X37623Y201086D01*
X38480Y200800D01*
X39051D01*
X39908Y201086D01*
X40479Y201657D01*
X40194Y203085D02*
Y203942D01*
X39908Y204514D01*
X38480Y204799D02*
X37909Y204514D01*
X37337Y203942D01*
X37051Y203085D01*
Y202514D01*
X37337Y201657D01*
X37909Y201086D01*
X38480Y200800D01*
X45107Y205942D02*
X45393Y206799D01*
Y205085D01*
X45107Y205942D01*
X44536Y206513D01*
X43679Y206799D01*
X42822D01*
X41965Y206513D01*
X41394Y205942D01*
Y205370D01*
X41679Y204799D01*
X41965Y204514D01*
X42536Y204228D01*
X44250Y203657D01*
X44821Y203371D01*
X45393Y202800D01*
X41394Y205370D02*
X41965Y204799D01*
X42536Y204514D01*
X44250Y203942D01*
X44821Y203657D01*
X45107Y203371D01*
X45393Y202800D01*
Y201657D01*
X44821Y201086D01*
X43964Y200800D01*
X43107D01*
X42250Y201086D01*
X41679Y201657D01*
X41394Y202514D01*
Y200800D01*
X41679Y201657D01*
X49706Y203942D02*
X49420Y203657D01*
X49706Y203371D01*
X49992Y203657D01*
Y203942D01*
X49420Y204514D01*
X48849Y204799D01*
X47992D01*
X47135Y204514D01*
X46564Y203942D01*
X46278Y203085D01*
Y202514D01*
X46564Y201657D01*
X47135Y201086D01*
X47992Y200800D01*
X48563D01*
X49420Y201086D01*
X49992Y201657D01*
X47992Y204799D02*
X47421Y204514D01*
X46849Y203942D01*
X46564Y203085D01*
Y202514D01*
X46849Y201657D01*
X47421Y201086D01*
X47992Y200800D01*
X51477Y204228D02*
Y203942D01*
X51191D01*
Y204228D01*
X51477Y204514D01*
X52048Y204799D01*
X53191D01*
X53762Y204514D01*
X54048Y204228D01*
X54334Y203657D01*
Y201657D01*
X54619Y201086D01*
X54905Y200800D01*
X54048Y204228D02*
Y201657D01*
X54334Y201086D01*
X54905Y200800D01*
X55190D01*
X54048Y203657D02*
X53762Y203371D01*
X52048Y203085D01*
X51191Y202800D01*
X50906Y202228D01*
Y201657D01*
X51191Y201086D01*
X52048Y200800D01*
X52905D01*
X53477Y201086D01*
X54048Y201657D01*
X52048Y203085D02*
X51477Y202800D01*
X51191Y202228D01*
Y201657D01*
X51477Y201086D01*
X52048Y200800D01*
X56904Y206799D02*
Y200800D01*
X57190Y206799D02*
Y200800D01*
X56047Y206799D02*
X57190D01*
X56047Y200800D02*
X58047D01*
X59418Y203085D02*
X62846D01*
Y203657D01*
X62560Y204228D01*
X62275Y204514D01*
X61703Y204799D01*
X60846D01*
X59990Y204514D01*
X59418Y203942D01*
X59132Y203085D01*
Y202514D01*
X59418Y201657D01*
X59990Y201086D01*
X60846Y200800D01*
X61418D01*
X62275Y201086D01*
X62846Y201657D01*
X62560Y203085D02*
Y203942D01*
X62275Y204514D01*
X60846Y204799D02*
X60275Y204514D01*
X59704Y203942D01*
X59418Y203085D01*
Y202514D01*
X59704Y201657D01*
X60275Y201086D01*
X60846Y200800D01*
X69730Y206799D02*
X71730Y200800D01*
X70016Y206799D02*
X71730Y201657D01*
X73729Y206799D02*
X71730Y200800D01*
X69159Y206799D02*
X70873D01*
X72587D02*
X74301D01*
X75072Y205656D02*
X75643Y205942D01*
X76500Y206799D01*
Y200800D01*
X76215Y206513D02*
Y200800D01*
X75072D02*
X77643D01*
X78957Y201371D02*
X78671Y201086D01*
X78957Y200800D01*
X79242Y201086D01*
X78957Y201371D01*
X80471Y205656D02*
X81042Y205942D01*
X81899Y206799D01*
Y200800D01*
X81613Y206513D02*
Y200800D01*
X80471D02*
X83042D01*
D11*
X200689Y7480D02*
G03*
X200689Y7480I-492J0D01*
G01*
X325268Y86587D02*
G03*
X325268Y86587I-492J0D01*
G01*
X227762Y46858D02*
G03*
X227762Y46858I-492J0D01*
G01*
X166158Y310442D02*
G03*
X166158Y310442I-492J0D01*
G01*
X154458Y314187D02*
G03*
X154458Y314187I-492J0D01*
G01*
X125906Y144366D02*
G03*
X125906Y144366I-492J0D01*
G01*
D12*
X235219Y44303D02*
G03*
X235219Y44303I-1000J0D01*
G01*
X44293Y122899D02*
X54900Y112293D01*
X45707Y103101D02*
X54900Y112293D01*
X35100Y113707D02*
X45707Y103101D01*
X35100Y113707D02*
X44293Y122899D01*
D13*
X97882Y351941D02*
X108118D01*
Y357059D01*
X97882D02*
X108118D01*
X97882Y351941D02*
Y357059D01*
X117941Y349382D02*
Y359618D01*
Y349382D02*
X123059D01*
Y359618D01*
X117941D02*
X123059D01*
X123141Y349382D02*
Y359618D01*
Y349382D02*
X128259D01*
Y359618D01*
X123141D02*
X128259D01*
X93500Y351441D02*
X97118D01*
X93500Y356559D02*
X97118D01*
X86882Y351441D02*
X90500D01*
X86882Y356559D02*
X90500D01*
X86882Y351441D02*
Y356559D01*
X97118Y351441D02*
Y356559D01*
X93500Y346341D02*
X97118D01*
X93500Y351459D02*
X97118D01*
X86882Y346341D02*
X90500D01*
X86882Y351459D02*
X90500D01*
X86882Y346341D02*
Y351459D01*
X97118Y346341D02*
Y351459D01*
X158341Y327000D02*
X158341Y323382D01*
X163459D02*
Y327000D01*
X158341Y330000D02*
X158341Y333618D01*
X163459Y330000D02*
Y333618D01*
X158341D02*
X163459D01*
X158341Y323382D02*
X163459D01*
X142400Y314900D02*
X145300D01*
X152300D02*
X155200D01*
X142400D02*
Y321700D01*
X145300D01*
X152300D02*
X155200D01*
Y314900D02*
Y321700D01*
X170741Y323382D02*
Y327000D01*
X175859D02*
X175859Y323382D01*
X170741Y333618D02*
X170741Y330000D01*
X175859D02*
X175859Y333618D01*
X170741D02*
X175859D01*
X170741Y323382D02*
X175859Y323382D01*
X164541Y323382D02*
Y327000D01*
X169659D02*
X169659Y323382D01*
X164541Y330000D02*
Y333618D01*
X169659Y330000D02*
X169659Y333618D01*
X164541Y333618D02*
X169659Y333618D01*
X164541Y323382D02*
X169659Y323382D01*
X145941Y160418D02*
X151059D01*
Y150182D02*
Y160418D01*
X145941Y150182D02*
X151059D01*
X145941D02*
Y160418D01*
X360433Y84449D02*
Y89567D01*
X370669Y84449D02*
Y89567D01*
X367051Y84449D02*
X370669Y84449D01*
X367051Y89567D02*
X370669Y89567D01*
X360433Y84449D02*
X364051Y84449D01*
X360433Y89567D02*
X364051Y89567D01*
X150382Y292641D02*
Y297759D01*
X160618D01*
Y292641D02*
Y297759D01*
X150382Y292641D02*
X160618D01*
X308000Y73055D02*
X310000Y76555D01*
X306000D02*
X310000D01*
X306000D02*
X308000Y73055D01*
X306000D02*
X310000D01*
X336811Y33268D02*
X347047D01*
X347047Y38386D01*
X336811Y38386D02*
X347047Y38386D01*
X336811Y33268D02*
Y38386D01*
X315047Y61382D02*
Y71618D01*
Y61382D02*
X320165D01*
Y71618D01*
X315047D02*
X320165D01*
X272441Y66894D02*
Y70512D01*
X277559Y66894D02*
Y70512D01*
X272441Y73512D02*
Y77130D01*
X277559Y73512D02*
Y77130D01*
X272441D02*
X277559D01*
X272441Y66894D02*
X277559D01*
X278441D02*
Y70512D01*
X283559Y66894D02*
Y70512D01*
X278441Y73512D02*
Y77130D01*
X283559Y73512D02*
Y77130D01*
X278441D02*
X283559D01*
X278441Y66894D02*
X283559D01*
X284441D02*
Y70512D01*
X289559Y66894D02*
Y70512D01*
X284441Y73512D02*
Y77130D01*
X289559Y73512D02*
Y77130D01*
X284441D02*
X289559D01*
X284441Y66894D02*
X289559D01*
X326166Y61382D02*
Y71618D01*
X321048D02*
X326166D01*
X321048Y61382D02*
Y71618D01*
Y61382D02*
X326166D01*
X335561Y27888D02*
X345798D01*
X335561Y22770D02*
Y27888D01*
Y22770D02*
X345798D01*
Y27888D01*
X200900Y28807D02*
X208100D01*
X200900Y42193D02*
X208100D01*
Y37000D02*
Y42193D01*
Y28807D02*
Y34000D01*
X200900Y28807D02*
Y34000D01*
Y37000D02*
Y42193D01*
X208900Y28807D02*
X216100D01*
X208900Y42193D02*
X216100D01*
Y37000D02*
Y42193D01*
Y28807D02*
Y34000D01*
X208900Y28807D02*
Y34000D01*
Y37000D02*
Y42193D01*
X216900Y28807D02*
X224100D01*
X216900Y42193D02*
X224100D01*
Y37000D02*
Y42193D01*
Y28807D02*
Y34000D01*
X216900Y28807D02*
Y34000D01*
Y37000D02*
Y42193D01*
X249550Y44291D02*
X256750D01*
X249550Y57677D02*
X256750D01*
Y52484D02*
Y57677D01*
Y44291D02*
Y49484D01*
X249550Y44291D02*
Y49484D01*
Y52484D02*
Y57677D01*
X335543Y16811D02*
X345779D01*
Y21929D01*
X335543D02*
X345779D01*
X335543Y16811D02*
Y21929D01*
X253252Y88547D02*
X259846D01*
X253153Y89630D02*
X259846D01*
X253153Y75752D02*
X259846D01*
X253153D02*
Y80650D01*
Y83650D02*
Y89630D01*
X259846Y83650D02*
Y89630D01*
Y75752D02*
Y80650D01*
X213585Y88547D02*
X220180D01*
X213487Y89630D02*
X220180D01*
X213487Y75752D02*
X220180D01*
X213487D02*
Y80650D01*
Y83650D02*
Y89630D01*
X220180Y83650D02*
Y89630D01*
Y75752D02*
Y80650D01*
X173919Y88547D02*
X180513D01*
X173820Y89630D02*
X180513D01*
X173820Y75752D02*
X180513D01*
X173820D02*
Y80650D01*
Y83650D02*
Y89630D01*
X180513Y83650D02*
Y89630D01*
Y75752D02*
Y80650D01*
X134252Y88547D02*
X140847D01*
X134153Y89630D02*
X140847D01*
X134153Y75752D02*
X140847D01*
X134153D02*
Y80650D01*
Y83650D02*
Y89630D01*
X140847Y83650D02*
Y89630D01*
Y75752D02*
Y80650D01*
X167282Y301341D02*
X177518D01*
Y306459D01*
X167282D02*
X177518D01*
X167282Y301341D02*
Y306459D01*
X5882Y226441D02*
X16118D01*
Y231559D01*
X5882D02*
X16118D01*
X5882Y226441D02*
Y231559D01*
Y253441D02*
X16118D01*
Y258559D01*
X5882D02*
X16118D01*
X5882Y253441D02*
Y258559D01*
X166559Y294141D02*
Y297759D01*
X161441D02*
X161441Y294141D01*
X166559Y287523D02*
Y291141D01*
X161441Y287523D02*
X161441Y291141D01*
X161441Y287523D02*
X166559D01*
X161441Y297759D02*
X166559D01*
X149559Y294100D02*
Y297718D01*
X144441Y294100D02*
Y297718D01*
X149559Y287482D02*
Y291100D01*
X144441Y287482D02*
Y291100D01*
Y287482D02*
X149559D01*
X144441Y297718D02*
X149559D01*
X132807Y129400D02*
Y136600D01*
X146193Y129400D02*
Y136600D01*
X141000Y129400D02*
X146193D01*
X132807D02*
X138000D01*
X132807Y136600D02*
X138000D01*
X141000D02*
X146193D01*
X139941Y150182D02*
Y153800D01*
X145059Y150182D02*
Y153800D01*
X139941Y156800D02*
Y160418D01*
X145059Y156800D02*
Y160418D01*
X139941D02*
X145059D01*
X139941Y150182D02*
X145059D01*
X157059Y150182D02*
Y160418D01*
X151941D02*
X157059D01*
X151941Y150182D02*
Y160418D01*
Y150182D02*
X157059D01*
X73400Y150482D02*
X83636D01*
Y155600D01*
X73400D02*
X83636D01*
X73400Y150482D02*
Y155600D01*
X147000Y165441D02*
X150618D01*
X147000Y170559D02*
X150618D01*
X140382Y165441D02*
X144000D01*
X140382Y170559D02*
X144000D01*
X140382Y165441D02*
Y170559D01*
X150618Y165441D02*
Y170559D01*
X73382Y144441D02*
X83618D01*
Y149559D01*
X73382D02*
X83618D01*
X73382Y144441D02*
Y149559D01*
X163059Y174382D02*
Y184618D01*
X157941D02*
X163059D01*
X157941Y174382D02*
Y184618D01*
Y174382D02*
X163059D01*
X150941Y179382D02*
Y183000D01*
X156059Y179382D02*
Y183000D01*
X150941Y186000D02*
Y189618D01*
X156059Y186000D02*
Y189618D01*
X150941D02*
X156059D01*
X150941Y179382D02*
X156059D01*
X163059Y186382D02*
Y196618D01*
X157941D02*
X163059D01*
X157941Y186382D02*
Y196618D01*
Y186382D02*
X163059D01*
X52300Y68941D02*
X55918Y68941D01*
X52300Y74059D02*
X55918Y74059D01*
X45682Y68941D02*
X49300Y68941D01*
X45682Y74059D02*
X49300Y74059D01*
X45682Y68941D02*
Y74059D01*
X55918Y68941D02*
Y74059D01*
X166329Y197599D02*
Y194600D01*
X166471Y197599D02*
Y194600D01*
X165900Y197599D02*
X166900D01*
X165900Y194600D02*
X166900D01*
X167871Y197599D02*
Y194600D01*
X168014Y197599D02*
X169728Y194886D01*
X168014Y197314D02*
X169728Y194600D01*
Y197599D02*
Y194600D01*
X167443Y197599D02*
X168014D01*
X169299D02*
X170156D01*
X167443Y194600D02*
X168299D01*
X170528Y197028D02*
X170813Y197171D01*
X171242Y197599D01*
Y194600D01*
X171099Y197457D02*
Y194600D01*
X170528D02*
X171813D01*
X165529Y187299D02*
Y184300D01*
X165671Y187299D02*
Y184300D01*
X165100Y187299D02*
X166100D01*
X165100Y184300D02*
X166100D01*
X167071Y187299D02*
Y184300D01*
X167214Y187299D02*
X168928Y184586D01*
X167214Y187014D02*
X168928Y184300D01*
Y187299D02*
Y184300D01*
X166642Y187299D02*
X167214D01*
X168499D02*
X169356D01*
X166642Y184300D02*
X167499D01*
X170584Y187299D02*
X170156Y187156D01*
X169870Y186728D01*
X169728Y186014D01*
Y185585D01*
X169870Y184871D01*
X170156Y184443D01*
X170584Y184300D01*
X170870D01*
X171299Y184443D01*
X171584Y184871D01*
X171727Y185585D01*
Y186014D01*
X171584Y186728D01*
X171299Y187156D01*
X170870Y187299D01*
X170584D01*
X170299Y187156D01*
X170156Y187014D01*
X170013Y186728D01*
X169870Y186014D01*
Y185585D01*
X170013Y184871D01*
X170156Y184586D01*
X170299Y184443D01*
X170584Y184300D01*
X170870D02*
X171156Y184443D01*
X171299Y184586D01*
X171441Y184871D01*
X171584Y185585D01*
Y186014D01*
X171441Y186728D01*
X171299Y187014D01*
X171156Y187156D01*
X170870Y187299D01*
X167300Y170500D02*
X169871D01*
X168685Y156171D02*
Y153600D01*
X167400Y154885D02*
X169971D01*
X16800Y238140D02*
X16942Y237712D01*
Y238568D01*
X16800Y238140D01*
X16514Y238426D01*
X16085Y238568D01*
X15800D01*
X15371Y238426D01*
X15086Y238140D01*
X14943Y237854D01*
X14800Y237426D01*
Y236712D01*
X14943Y236283D01*
X15086Y235998D01*
X15371Y235712D01*
X15800Y235569D01*
X16085D01*
X16514Y235712D01*
X16800Y235998D01*
X15800Y238568D02*
X15514Y238426D01*
X15228Y238140D01*
X15086Y237854D01*
X14943Y237426D01*
Y236712D01*
X15086Y236283D01*
X15228Y235998D01*
X15514Y235712D01*
X15800Y235569D01*
X16800Y236712D02*
Y235569D01*
X16942Y236712D02*
Y235569D01*
X16371Y236712D02*
X17371D01*
X18185Y238568D02*
Y235569D01*
X18328Y238568D02*
X20042Y235855D01*
X18328Y238283D02*
X20042Y235569D01*
Y238568D02*
Y235569D01*
X17756Y238568D02*
X18328D01*
X19613D02*
X20470D01*
X17756Y235569D02*
X18613D01*
X21270Y238568D02*
Y235569D01*
X21413Y238568D02*
Y235569D01*
X20842Y238568D02*
X22270D01*
X22698Y238426D01*
X22984Y238140D01*
X23127Y237854D01*
X23270Y237426D01*
Y236712D01*
X23127Y236283D01*
X22984Y235998D01*
X22698Y235712D01*
X22270Y235569D01*
X20842D01*
X22270Y238568D02*
X22556Y238426D01*
X22841Y238140D01*
X22984Y237854D01*
X23127Y237426D01*
Y236712D01*
X22984Y236283D01*
X22841Y235998D01*
X22556Y235712D01*
X22270Y235569D01*
X15629Y249499D02*
Y246500D01*
X15771Y249499D02*
Y246500D01*
X15200Y249499D02*
X16914D01*
X17342Y249357D01*
X17485Y249214D01*
X17628Y248928D01*
Y248642D01*
X17485Y248357D01*
X17342Y248214D01*
X16914Y248071D01*
Y249499D02*
X17200Y249357D01*
X17342Y249214D01*
X17485Y248928D01*
Y248642D01*
X17342Y248357D01*
X17200Y248214D01*
X16914Y248071D01*
X15771D02*
X16914D01*
X17342Y247928D01*
X17485Y247785D01*
X17628Y247500D01*
Y247071D01*
X17485Y246786D01*
X17342Y246643D01*
X16914Y246500D01*
X15200D01*
X16914Y248071D02*
X17200Y247928D01*
X17342Y247785D01*
X17485Y247500D01*
Y247071D01*
X17342Y246786D01*
X17200Y246643D01*
X16914Y246500D01*
X19028Y249499D02*
X18599Y249357D01*
X18314Y249071D01*
X18171Y248785D01*
X18028Y248214D01*
Y247785D01*
X18171Y247214D01*
X18314Y246929D01*
X18599Y246643D01*
X19028Y246500D01*
X19313D01*
X19742Y246643D01*
X20028Y246929D01*
X20170Y247214D01*
X20313Y247785D01*
Y248214D01*
X20170Y248785D01*
X20028Y249071D01*
X19742Y249357D01*
X19313Y249499D01*
X19028D01*
X18742Y249357D01*
X18456Y249071D01*
X18314Y248785D01*
X18171Y248214D01*
Y247785D01*
X18314Y247214D01*
X18456Y246929D01*
X18742Y246643D01*
X19028Y246500D01*
X19313D02*
X19599Y246643D01*
X19885Y246929D01*
X20028Y247214D01*
X20170Y247785D01*
Y248214D01*
X20028Y248785D01*
X19885Y249071D01*
X19599Y249357D01*
X19313Y249499D01*
X21727D02*
X21299Y249357D01*
X21013Y249071D01*
X20870Y248785D01*
X20727Y248214D01*
Y247785D01*
X20870Y247214D01*
X21013Y246929D01*
X21299Y246643D01*
X21727Y246500D01*
X22013D01*
X22441Y246643D01*
X22727Y246929D01*
X22870Y247214D01*
X23013Y247785D01*
Y248214D01*
X22870Y248785D01*
X22727Y249071D01*
X22441Y249357D01*
X22013Y249499D01*
X21727D01*
X21441Y249357D01*
X21156Y249071D01*
X21013Y248785D01*
X20870Y248214D01*
Y247785D01*
X21013Y247214D01*
X21156Y246929D01*
X21441Y246643D01*
X21727Y246500D01*
X22013D02*
X22298Y246643D01*
X22584Y246929D01*
X22727Y247214D01*
X22870Y247785D01*
Y248214D01*
X22727Y248785D01*
X22584Y249071D01*
X22298Y249357D01*
X22013Y249499D01*
X24427D02*
Y246500D01*
X24569Y249499D02*
Y246500D01*
X23570Y249499D02*
X23427Y248642D01*
Y249499D01*
X25569D01*
Y248642D01*
X25426Y249499D01*
X23998Y246500D02*
X24998D01*
X24100Y278096D02*
X24242Y277667D01*
Y278524D01*
X24100Y278096D01*
X23814Y278381D01*
X23385Y278524D01*
X23100D01*
X22671Y278381D01*
X22386Y278096D01*
X22243Y277810D01*
X22100Y277382D01*
Y276667D01*
X22243Y276239D01*
X22386Y275953D01*
X22671Y275668D01*
X23100Y275525D01*
X23385D01*
X23814Y275668D01*
X24100Y275953D01*
X23100Y278524D02*
X22814Y278381D01*
X22528Y278096D01*
X22386Y277810D01*
X22243Y277382D01*
Y276667D01*
X22386Y276239D01*
X22528Y275953D01*
X22814Y275668D01*
X23100Y275525D01*
X24100Y276667D02*
Y275525D01*
X24242Y276667D02*
Y275525D01*
X23671Y276667D02*
X24671D01*
X25485Y278524D02*
Y275525D01*
X25628Y278524D02*
X27342Y275811D01*
X25628Y278239D02*
X27342Y275525D01*
Y278524D02*
Y275525D01*
X25056Y278524D02*
X25628D01*
X26913D02*
X27770D01*
X25056Y275525D02*
X25914D01*
X28570Y278524D02*
Y275525D01*
X28713Y278524D02*
Y275525D01*
X28142Y278524D02*
X29570D01*
X29998Y278381D01*
X30284Y278096D01*
X30427Y277810D01*
X30570Y277382D01*
Y276667D01*
X30427Y276239D01*
X30284Y275953D01*
X29998Y275668D01*
X29570Y275525D01*
X28142D01*
X29570Y278524D02*
X29855Y278381D01*
X30141Y278096D01*
X30284Y277810D01*
X30427Y277382D01*
Y276667D01*
X30284Y276239D01*
X30141Y275953D01*
X29855Y275668D01*
X29570Y275525D01*
X24500Y288199D02*
Y285200D01*
X24643Y288199D02*
Y285200D01*
X23643Y288199D02*
X23500Y287342D01*
Y288199D01*
X25642D01*
Y287342D01*
X25500Y288199D01*
X24071Y285200D02*
X25071D01*
X26357Y288199D02*
X28213Y285200D01*
X26499Y288199D02*
X28356Y285200D01*
Y288199D02*
X26357Y285200D01*
X26071Y288199D02*
X26928D01*
X27785D02*
X28642D01*
X26071Y285200D02*
X26928D01*
X27785D02*
X28642D01*
X23328Y297899D02*
Y294900D01*
X23471Y297899D02*
Y294900D01*
X22900Y297899D02*
X24614D01*
X25042Y297757D01*
X25185Y297614D01*
X25328Y297328D01*
Y297042D01*
X25185Y296757D01*
X25042Y296614D01*
X24614Y296471D01*
X23471D01*
X24614Y297899D02*
X24900Y297757D01*
X25042Y297614D01*
X25185Y297328D01*
Y297042D01*
X25042Y296757D01*
X24900Y296614D01*
X24614Y296471D01*
X22900Y294900D02*
X23900D01*
X24185Y296471D02*
X24471Y296328D01*
X24614Y296185D01*
X25042Y295186D01*
X25185Y295043D01*
X25328D01*
X25471Y295186D01*
X24471Y296328D02*
X24614Y296043D01*
X24900Y295043D01*
X25042Y294900D01*
X25328D01*
X25471Y295186D01*
Y295328D01*
X26142Y297899D02*
X27999Y294900D01*
X26285Y297899D02*
X28142Y294900D01*
Y297899D02*
X26142Y294900D01*
X25857Y297899D02*
X26713D01*
X27570D02*
X28427D01*
X25857Y294900D02*
X26713D01*
X27570D02*
X28427D01*
X23186Y306599D02*
X22900Y305171D01*
X23186Y305457D01*
X23614Y305600D01*
X24043D01*
X24471Y305457D01*
X24757Y305171D01*
X24900Y304743D01*
Y304457D01*
X24757Y304029D01*
X24471Y303743D01*
X24043Y303600D01*
X23614D01*
X23186Y303743D01*
X23043Y303886D01*
X22900Y304171D01*
Y304314D01*
X23043Y304457D01*
X23186Y304314D01*
X23043Y304171D01*
X24043Y305600D02*
X24328Y305457D01*
X24614Y305171D01*
X24757Y304743D01*
Y304457D01*
X24614Y304029D01*
X24328Y303743D01*
X24043Y303600D01*
X23186Y306599D02*
X24614D01*
X23186Y306456D02*
X23900D01*
X24614Y306599D01*
X25628D02*
X26628Y303600D01*
X25771Y306599D02*
X26628Y304029D01*
X27628Y306599D02*
X26628Y303600D01*
X25342Y306599D02*
X26199D01*
X27056D02*
X27913D01*
D14*
X92000Y354000D02*
X92300D01*
X91700D02*
X92000D01*
Y353100D02*
Y354900D01*
Y348900D02*
X92300D01*
X91700D02*
X92000D01*
Y348000D02*
Y349800D01*
X160900Y328200D02*
Y328500D01*
Y328800D01*
X160000Y328500D02*
X161800D01*
X173300Y328200D02*
Y328500D01*
X173300Y328800D02*
X173300Y328500D01*
X172400Y328500D02*
X174200D01*
X167100Y328500D02*
X167100Y328200D01*
X167100Y328500D02*
X167100Y328800D01*
X166200Y328500D02*
X168000Y328500D01*
X365551Y86107D02*
Y87907D01*
Y87007D02*
X365851Y87008D01*
X365251Y87007D02*
X365551D01*
X35201Y80000D02*
Y81968D01*
Y94173D02*
Y95748D01*
X37169D01*
X48980D02*
X50949D01*
Y93779D02*
Y95748D01*
X48980Y80000D02*
X50949D01*
X50949Y81968D02*
X50949Y80000D01*
X35201D02*
X37169D01*
X275000Y71712D02*
Y72012D01*
Y72312D01*
X274100Y72012D02*
X275900D01*
X281000Y71712D02*
Y72012D01*
Y72312D01*
X280100Y72012D02*
X281900D01*
X287000Y71712D02*
Y72012D01*
Y72312D01*
X286100Y72012D02*
X287900D01*
X292500Y72000D02*
X297500D01*
X292500Y71000D02*
X297500D01*
X295000Y69500D02*
Y71000D01*
Y72000D02*
Y73500D01*
X365854Y81240D02*
X365854Y76240D01*
X364854Y76240D02*
Y81240D01*
X363354Y78740D02*
X364854D01*
X365854D02*
X367354D01*
X203000Y36000D02*
X206000D01*
X203000Y35000D02*
X206000D01*
X204500Y34500D02*
Y35000D01*
Y36000D02*
Y36500D01*
X211000Y36000D02*
X214000D01*
X211000Y35000D02*
X214000D01*
X212500Y34500D02*
Y35000D01*
Y36000D02*
Y36500D01*
X219000Y36000D02*
X222000D01*
X219000Y35000D02*
X222000D01*
X220500Y34500D02*
Y35000D01*
Y36000D02*
Y36500D01*
X251650Y51484D02*
X254650D01*
X251650Y50484D02*
X254650D01*
X253150Y49984D02*
Y50484D01*
Y51484D02*
Y51984D01*
X259500Y51500D02*
X264500D01*
X259500Y50500D02*
X264500D01*
X262000Y49000D02*
Y50500D01*
Y51500D02*
Y53000D01*
X164000Y292641D02*
Y292941D01*
Y292341D02*
Y292641D01*
X163100D02*
X164900D01*
X147000Y292600D02*
Y292900D01*
Y292300D02*
Y292600D01*
X146100D02*
X147900D01*
X140000Y131500D02*
Y134500D01*
X139000Y131500D02*
Y134500D01*
X138500Y133000D02*
X139000D01*
X140000D02*
X140500D01*
X142500Y155000D02*
Y155300D01*
Y155600D01*
X141600Y155300D02*
X143400D01*
X145500Y168000D02*
X145800D01*
X145200D02*
X145500D01*
Y167100D02*
Y168900D01*
X153500Y184200D02*
Y184500D01*
Y184800D01*
X152600Y184500D02*
X154400D01*
X48031Y49539D02*
X54331D01*
X61221Y34500D02*
Y44500D01*
X48031Y29461D02*
X54331D01*
X41142Y34500D02*
Y44500D01*
X50800Y71500D02*
X51100D01*
X50500D02*
X50800D01*
Y70600D02*
Y72400D01*
X73736Y366303D02*
X76402D01*
X73736Y363637D01*
Y362971D01*
X74402Y362304D01*
X75735D01*
X76402Y362971D01*
X70403Y366303D02*
Y362304D01*
X72403Y364304D01*
X69737D01*
X127189Y366303D02*
X125856D01*
X126523D01*
Y362304D01*
X127189Y362971D01*
D15*
X34378Y97399D02*
Y99262D01*
X34379Y94537D02*
Y96400D01*
X31622Y97400D02*
Y99262D01*
X31622Y94538D02*
Y96400D01*
Y94538D02*
X34378D01*
X31622Y99262D02*
X34378D01*
X26378Y97399D02*
Y99262D01*
X26379Y94537D02*
Y96400D01*
X23622Y97400D02*
Y99262D01*
X23622Y94538D02*
Y96400D01*
Y94538D02*
X26378D01*
X23622Y99262D02*
X26378D01*
X26622Y97293D02*
X31346D01*
X26622Y94537D02*
X31346D01*
X26622D02*
Y97293D01*
X31346Y94537D02*
Y97293D01*
D16*
X32809Y340572D02*
X37809D01*
X32809Y335572D02*
Y340572D01*
X132409Y235772D02*
X137409D01*
Y240772D01*
X33409Y235772D02*
X38409D01*
X33409D02*
Y240772D01*
X35409Y332772D02*
Y337772D01*
X40409D01*
X137409Y334772D02*
Y339772D01*
X132409D02*
X137409D01*
D17*
X118500Y19370D02*
X128500D01*
X118500D02*
Y59370D01*
X128500Y19370D02*
Y59370D01*
X118500D02*
X128500D01*
X193307Y17323D02*
Y20472D01*
X196063Y20472D01*
X193307Y8661D02*
Y11811D01*
Y8661D02*
X196063Y8661D01*
X328122Y85602D02*
X330878D01*
X328122Y73398D02*
X330878D01*
X328122D02*
Y85602D01*
X330878Y73398D02*
Y85602D01*
X341551Y40764D02*
X342339D01*
X341551D02*
Y52284D01*
X342339D01*
Y40764D02*
Y52284D01*
X343717Y40224D02*
X349228D01*
X242719Y27803D02*
Y32803D01*
X237719Y27803D02*
X242719D01*
Y42803D02*
Y47803D01*
X237719D02*
X242719D01*
X175509Y317332D02*
X178658D01*
X178658Y314576D01*
X166847Y317332D02*
X169997D01*
X166847Y314576D02*
X166847Y317332D01*
X160856Y301195D02*
Y304344D01*
X158100Y301195D02*
X160856Y301195D01*
Y309856D02*
Y313005D01*
X158100Y313005D02*
X160856Y313005D01*
X64689Y380909D02*
Y385339D01*
X137721Y380909D02*
Y385339D01*
X64689D02*
X137721D01*
X4000Y252500D02*
X14000D01*
Y232500D02*
Y252500D01*
X4000Y232500D02*
X14000D01*
X4000D02*
Y252500D01*
X34535Y113848D02*
X37646Y116960D01*
X34464Y113778D02*
X37646Y110596D01*
X135256Y151256D02*
X138406D01*
X138406Y148500D01*
X126594Y151256D02*
X129744D01*
X126594Y148500D02*
X126594Y151256D01*
X99201Y144512D02*
X111799D01*
X99201D02*
Y183488D01*
X111799Y183488D01*
Y144512D02*
Y183488D01*
X113177Y143744D02*
X119181D01*
X65500Y103997D02*
X79000Y103997D01*
X65500Y71603D02*
Y103997D01*
Y71603D02*
X79000Y71603D01*
Y103997D01*
M02*
