G04*
G04 #@! TF.GenerationSoftware,Altium Limited,Altium Designer,21.0.8 (223)*
G04*
G04 Layer_Color=32768*
%FSLAX25Y25*%
%MOIN*%
G70*
G04*
G04 #@! TF.SameCoordinates,947A2CD8-D87E-4BA2-AADF-D00DD91F1A07*
G04*
G04*
G04 #@! TF.FilePolarity,Positive*
G04*
G01*
G75*
%ADD134C,0.00394*%
%ADD135C,0.00100*%
%ADD136C,0.00197*%
%ADD137C,0.00158*%
D134*
X99400Y374731D02*
Y378668D01*
X97431Y376700D02*
X101368D01*
X108300Y340932D02*
Y344868D01*
X106332Y342900D02*
X110268D01*
X207000Y80532D02*
Y84469D01*
X205031Y82500D02*
X208968D01*
X246000Y80532D02*
Y84469D01*
X244032Y82500D02*
X247969D01*
X127500Y80532D02*
Y84469D01*
X125531Y82500D02*
X129469D01*
X166500Y80532D02*
Y84469D01*
X164532Y82500D02*
X168468D01*
X196063Y12598D02*
Y16535D01*
X194095Y14567D02*
X198031D01*
X327532Y79500D02*
X331469D01*
X329500Y77531D02*
Y81468D01*
X224718Y27803D02*
Y47803D01*
X248719Y27803D02*
Y47803D01*
X224718D02*
X248719D01*
X224718Y27803D02*
X248719D01*
X170784Y314576D02*
X174721D01*
X172753Y312608D02*
Y316545D01*
X158100Y305132D02*
Y309068D01*
X156131Y307100D02*
X160069D01*
X130532Y148500D02*
X134468D01*
X132500Y146531D02*
Y150469D01*
X57480Y26902D02*
X59449D01*
X41142Y34500D02*
Y44500D01*
X46181Y49539D01*
X41142Y34500D02*
X46181Y29461D01*
X56181D01*
X61221Y34500D01*
Y44500D01*
X56181Y49539D02*
X61221Y44500D01*
X46081Y49539D02*
X56181D01*
X57480Y26902D02*
Y30757D01*
X59449Y26902D02*
Y32730D01*
X42913Y46270D02*
Y52098D01*
X44882Y48243D02*
Y52098D01*
X42913D02*
X44882D01*
X57480D02*
X59449D01*
X57480Y48243D02*
Y52098D01*
X59449Y46270D02*
Y52098D01*
X42913Y26902D02*
Y32730D01*
X44882Y26902D02*
Y30757D01*
X42913Y26902D02*
X44882D01*
D135*
X134900Y265000D02*
G03*
X134900Y265000I-500J0D01*
G01*
Y270300D02*
G03*
X134900Y270300I-500J0D01*
G01*
X110400Y379300D02*
G03*
X110400Y379300I-500J0D01*
G01*
X87600Y379341D02*
G03*
X87600Y379341I-500J0D01*
G01*
X87600Y374000D02*
G03*
X87600Y374000I-500J0D01*
G01*
X119800Y345700D02*
G03*
X119800Y345700I-500J0D01*
G01*
X144900Y327700D02*
G03*
X144900Y327700I-500J0D01*
G01*
X103500Y354500D02*
G03*
X103500Y354500I-500J0D01*
G01*
X121000D02*
G03*
X121000Y354500I-500J0D01*
G01*
X126200D02*
G03*
X126200Y354500I-500J0D01*
G01*
X92500Y354000D02*
G03*
X92500Y354000I-500J0D01*
G01*
Y348900D02*
G03*
X92500Y348900I-500J0D01*
G01*
X33500Y96900D02*
G03*
X33500Y96900I-500J0D01*
G01*
X25500D02*
G03*
X25500Y96900I-500J0D01*
G01*
X29485Y95915D02*
G03*
X29485Y95915I-500J0D01*
G01*
X163000Y304100D02*
G03*
X163000Y304100I-500J0D01*
G01*
Y310100D02*
G03*
X163000Y310100I-500J0D01*
G01*
X161400Y328500D02*
G03*
X161400Y328500I-500J0D01*
G01*
X173800Y328500D02*
G03*
X173800Y328500I-500J0D01*
G01*
X167600Y328500D02*
G03*
X167600Y328500I-500J0D01*
G01*
X149000Y155300D02*
G03*
X149000Y155300I-500J0D01*
G01*
X366051Y87007D02*
G03*
X366051Y87007I-500J0D01*
G01*
X72413Y38106D02*
G03*
X72413Y38106I-500J0D01*
G01*
Y44106D02*
G03*
X72413Y44106I-500J0D01*
G01*
X44000Y66900D02*
G03*
X44000Y66900I-500J0D01*
G01*
X156000Y295200D02*
G03*
X156000Y295200I-500J0D01*
G01*
X35500Y79341D02*
G03*
X35500Y79341I-500J0D01*
G01*
X41200Y83400D02*
G03*
X41200Y83400I-500J0D01*
G01*
X35500Y91500D02*
G03*
X35500Y91500I-500J0D01*
G01*
X33600Y100000D02*
G03*
X33600Y100000I-500J0D01*
G01*
X256900Y81000D02*
G03*
X256900Y81000I-500J0D01*
G01*
X138000D02*
G03*
X138000Y81000I-500J0D01*
G01*
X177700D02*
G03*
X177700Y81000I-500J0D01*
G01*
X217300Y80900D02*
G03*
X217300Y80900I-500J0D01*
G01*
X339500Y111900D02*
G03*
X339500Y111900I-500J0D01*
G01*
X339554Y105941D02*
G03*
X339554Y105941I-500J0D01*
G01*
X332000Y83000D02*
G03*
X332000Y83000I-500J0D01*
G01*
X342429Y35827D02*
G03*
X342429Y35827I-500J0D01*
G01*
X318106Y66500D02*
G03*
X318106Y66500I-500J0D01*
G01*
X275500Y72012D02*
G03*
X275500Y72012I-500J0D01*
G01*
X281500D02*
G03*
X281500Y72012I-500J0D01*
G01*
X287500D02*
G03*
X287500Y72012I-500J0D01*
G01*
X324106Y66500D02*
G03*
X324106Y66500I-500J0D01*
G01*
X341179Y25329D02*
G03*
X341179Y25329I-500J0D01*
G01*
X341161Y19370D02*
G03*
X341161Y19370I-500J0D01*
G01*
X257000Y82150D02*
G03*
X257000Y82150I-500J0D01*
G01*
X217333D02*
G03*
X217333Y82150I-500J0D01*
G01*
X177667D02*
G03*
X177667Y82150I-500J0D01*
G01*
X138000D02*
G03*
X138000Y82150I-500J0D01*
G01*
X172900Y303900D02*
G03*
X172900Y303900I-500J0D01*
G01*
X11500Y229000D02*
G03*
X11500Y229000I-500J0D01*
G01*
Y256000D02*
G03*
X11500Y256000I-500J0D01*
G01*
X164500Y292641D02*
G03*
X164500Y292641I-500J0D01*
G01*
X147500Y292600D02*
G03*
X147500Y292600I-500J0D01*
G01*
X143000Y155300D02*
G03*
X143000Y155300I-500J0D01*
G01*
X155000D02*
G03*
X155000Y155300I-500J0D01*
G01*
X79018Y153041D02*
G03*
X79018Y153041I-500J0D01*
G01*
X146000Y168000D02*
G03*
X146000Y168000I-500J0D01*
G01*
X79000Y147000D02*
G03*
X79000Y147000I-500J0D01*
G01*
X161000Y179500D02*
G03*
X161000Y179500I-500J0D01*
G01*
X154000Y184500D02*
G03*
X154000Y184500I-500J0D01*
G01*
X161000Y191500D02*
G03*
X161000Y191500I-500J0D01*
G01*
X51300Y71500D02*
G03*
X51300Y71500I-500J0D01*
G01*
X133613Y265000D02*
X135187D01*
X134400Y264213D02*
Y265787D01*
X133613Y270300D02*
X135187D01*
X134400Y269513D02*
Y271087D01*
X109113Y379300D02*
X110687D01*
X109900Y378513D02*
Y380087D01*
X87100Y378554D02*
Y380129D01*
X86313Y379341D02*
X87887D01*
X87100Y373213D02*
Y374787D01*
X86313Y374000D02*
X87887D01*
X118513Y345700D02*
X120087D01*
X119300Y344913D02*
Y346487D01*
X144400Y326913D02*
Y328487D01*
X143613Y327700D02*
X145187D01*
X102213Y354500D02*
X103787D01*
X103000Y353713D02*
Y355287D01*
X120500Y353713D02*
Y355287D01*
X119713Y354500D02*
X121287D01*
X125700Y353713D02*
Y355287D01*
X124913Y354500D02*
X126487D01*
X92000Y353213D02*
Y354787D01*
X91213Y354000D02*
X92787D01*
X92000Y348113D02*
Y349687D01*
X91213Y348900D02*
X92787D01*
X33000Y96112D02*
Y97687D01*
X32213Y96900D02*
X33788D01*
X25000Y96112D02*
Y97687D01*
X24213Y96900D02*
X25788D01*
X28197Y95915D02*
X29772D01*
X28985Y95128D02*
Y96703D01*
X162500Y303313D02*
Y304887D01*
X161713Y304100D02*
X163287D01*
X162500Y309313D02*
X162500Y310887D01*
X161713Y310100D02*
X163287D01*
X160113Y328500D02*
X161687D01*
X160900Y329287D02*
X160900Y327713D01*
X172513Y328500D02*
X174087D01*
X173300Y327713D02*
Y329287D01*
X166313Y328500D02*
X167887Y328500D01*
X167100Y327713D02*
X167100Y329287D01*
X147713Y155300D02*
X149287D01*
X148500Y154513D02*
Y156087D01*
X364763Y87007D02*
X366338D01*
X365551Y86220D02*
Y87795D01*
X71913Y37319D02*
Y38894D01*
X71126Y38106D02*
X72701D01*
X71126Y44106D02*
X72701D01*
X71913Y43319D02*
Y44894D01*
X43500Y66112D02*
X43500Y67687D01*
X42713Y66900D02*
X44288Y66900D01*
X155500Y294413D02*
Y295987D01*
X154713Y295200D02*
X156287D01*
X34213Y79341D02*
X35787Y79341D01*
X35000Y80128D02*
X35000Y78553D01*
X40700Y82613D02*
Y84187D01*
X39913Y83400D02*
X41487D01*
X35000Y90713D02*
Y92287D01*
X34213Y91500D02*
X35787D01*
X32313Y100000D02*
X33887D01*
X33100Y99213D02*
Y100787D01*
X255613Y81000D02*
X257187D01*
X256400Y80213D02*
Y81787D01*
X136713Y81000D02*
X138287D01*
X137500Y80213D02*
Y81787D01*
X176413Y81000D02*
X177987D01*
X177200Y80213D02*
Y81787D01*
X216013Y80900D02*
X217587D01*
X216800Y80113D02*
Y81687D01*
X339000Y111113D02*
Y112687D01*
X338213Y111900D02*
X339787D01*
X339054Y105154D02*
Y106729D01*
X338267Y105941D02*
X339841D01*
X331500Y82213D02*
Y83787D01*
X330713Y83000D02*
X332287D01*
X341142Y35827D02*
X342717D01*
X341929Y35040D02*
Y36615D01*
X317606Y65713D02*
Y67287D01*
X316819Y66500D02*
X318394D01*
X274213Y72012D02*
X275787D01*
X275000Y71224D02*
Y72799D01*
X280213Y72012D02*
X281787D01*
X281000Y71224D02*
Y72799D01*
X286213Y72012D02*
X287787D01*
X287000Y71224D02*
Y72799D01*
X323606Y65713D02*
Y67287D01*
X322819Y66500D02*
X324394D01*
X339892Y25329D02*
X341467D01*
X340679Y24541D02*
Y26116D01*
X339874Y19370D02*
X341449D01*
X340661Y18583D02*
Y20157D01*
X256500Y81362D02*
Y82937D01*
X255713Y82150D02*
X257287D01*
X216833Y81362D02*
Y82937D01*
X216046Y82150D02*
X217621D01*
X177167Y81362D02*
Y82937D01*
X176379Y82150D02*
X177954D01*
X137500Y81362D02*
Y82937D01*
X136713Y82150D02*
X138287D01*
X171613Y303900D02*
X173187D01*
X172400Y303113D02*
Y304687D01*
X10213Y229000D02*
X11787D01*
X11000Y228213D02*
Y229787D01*
X10213Y256000D02*
X11787D01*
X11000Y255213D02*
Y256787D01*
X163212Y292641D02*
X164787D01*
X164000Y291854D02*
Y293429D01*
X146213Y292600D02*
X147787D01*
X147000Y291813D02*
Y293387D01*
X141713Y155300D02*
X143287D01*
X142500Y154513D02*
Y156087D01*
X154500Y154513D02*
Y156087D01*
X153713Y155300D02*
X155287D01*
X77731Y153041D02*
X79306D01*
X78518Y152254D02*
Y153829D01*
X145500Y167213D02*
Y168787D01*
X144713Y168000D02*
X146287D01*
X77713Y147000D02*
X79287D01*
X78500Y146213D02*
Y147787D01*
X160500Y178713D02*
Y180287D01*
X159713Y179500D02*
X161287D01*
X152713Y184500D02*
X154287D01*
X153500Y183713D02*
Y185287D01*
X160500Y190713D02*
Y192287D01*
X159713Y191500D02*
X161287D01*
X50800Y70713D02*
Y72287D01*
X50013Y71500D02*
X51587D01*
D136*
X150178Y318300D02*
G03*
X150178Y318300I-1378J0D01*
G01*
D02*
G03*
X150178Y318300I-1378J0D01*
G01*
X309378Y75000D02*
G03*
X309378Y75000I-1378J0D01*
G01*
X296378Y71500D02*
G03*
X296378Y71500I-1378J0D01*
G01*
X366732Y78740D02*
G03*
X366732Y78740I-1378J0D01*
G01*
X238096Y37803D02*
G03*
X238096Y37803I-1378J0D01*
G01*
X205878Y35500D02*
G03*
X205878Y35500I-1378J0D01*
G01*
D02*
G03*
X205878Y35500I-1378J0D01*
G01*
X213878D02*
G03*
X213878Y35500I-1378J0D01*
G01*
D02*
G03*
X213878Y35500I-1378J0D01*
G01*
X221878D02*
G03*
X221878Y35500I-1378J0D01*
G01*
D02*
G03*
X221878Y35500I-1378J0D01*
G01*
X254528Y50984D02*
G03*
X254528Y50984I-1378J0D01*
G01*
D02*
G03*
X254528Y50984I-1378J0D01*
G01*
X263378Y51000D02*
G03*
X263378Y51000I-1378J0D01*
G01*
X140878Y133000D02*
G03*
X140878Y133000I-1378J0D01*
G01*
D02*
G03*
X140878Y133000I-1378J0D01*
G01*
X52559Y39500D02*
G03*
X52559Y39500I-1378J0D01*
G01*
X75378Y87800D02*
G03*
X75378Y87800I-1378J0D01*
G01*
X93101Y382999D02*
X105699D01*
X93101Y370401D02*
X105699D01*
Y382999D01*
X93101Y370401D02*
Y382999D01*
X102001Y349199D02*
X114599D01*
X102001Y336601D02*
X114599D01*
Y349199D01*
X102001Y336601D02*
Y349199D01*
X148800Y316332D02*
Y320269D01*
X146832Y318300D02*
X150768D01*
X146832D02*
X150768D01*
X148800Y316332D02*
Y320269D01*
X200110Y74823D02*
X213890D01*
X200110Y90177D02*
X213890D01*
Y74823D02*
Y90177D01*
X200110Y74823D02*
Y90177D01*
X239110Y74823D02*
X252890D01*
X239110Y90177D02*
X252890D01*
Y74823D02*
Y90177D01*
X239110Y74823D02*
Y90177D01*
X120610Y74823D02*
X134390D01*
X120610Y90177D02*
X134390D01*
Y74823D02*
Y90177D01*
X120610Y74823D02*
Y90177D01*
X159610Y74823D02*
X173390D01*
X159610Y90177D02*
X173390D01*
Y74823D02*
Y90177D01*
X159610Y74823D02*
Y90177D01*
X308000Y73032D02*
Y76968D01*
X306031Y75000D02*
X309968D01*
X188386Y21457D02*
X203740D01*
X188386Y7677D02*
X203740D01*
X188386D02*
Y21457D01*
X203740D02*
X203740Y7677D01*
X322610Y73004D02*
Y85996D01*
X336390Y73004D02*
Y85996D01*
X322610D02*
X336390D01*
X322610Y73004D02*
X336390D01*
X333677Y39583D02*
X350213Y39583D01*
X333677Y39583D02*
Y53465D01*
X350213Y53465D01*
Y39583D02*
Y53465D01*
X293032Y71500D02*
X296969D01*
X295000Y69532D02*
Y73469D01*
X365354Y76772D02*
Y80709D01*
X363386Y78740D02*
X367323D01*
X236719Y35835D02*
Y39772D01*
X234750Y37803D02*
X238687D01*
X202532Y35500D02*
X206469D01*
X204500Y33531D02*
Y37468D01*
Y33531D02*
Y37468D01*
X202532Y35500D02*
X206469D01*
X210531D02*
X214469D01*
X212500Y33531D02*
Y37468D01*
Y33531D02*
Y37468D01*
X210531Y35500D02*
X214469D01*
X218531D02*
X222468D01*
X220500Y33531D02*
Y37468D01*
Y33531D02*
Y37468D01*
X218531Y35500D02*
X222468D01*
X251181Y50984D02*
X255118D01*
X253150Y49015D02*
Y52952D01*
Y49015D02*
Y52952D01*
X251181Y50984D02*
X255118D01*
X260032Y51000D02*
X263968D01*
X262000Y49031D02*
Y52969D01*
X179642Y306899D02*
Y322253D01*
X165863Y306899D02*
Y322253D01*
X179642D01*
X165863Y306899D02*
X179642Y306899D01*
X150423Y300210D02*
X165777D01*
X150423Y313990D02*
X165777D01*
Y300210D02*
Y313990D01*
X150423D02*
X150423Y300210D01*
X63902Y386126D02*
X138508D01*
Y363350D02*
Y386126D01*
X63902Y363350D02*
X138508D01*
X63902D02*
Y386126D01*
X99236Y376579D02*
X103173D01*
X101205Y374610D02*
Y378547D01*
X139500Y131032D02*
Y134968D01*
X137531Y133000D02*
X141469D01*
X137531D02*
X141469D01*
X139500Y131032D02*
Y134968D01*
X139390Y140823D02*
Y156177D01*
X125610Y140823D02*
Y156177D01*
X139390D01*
X125610Y140823D02*
X139390Y140823D01*
X90835Y143134D02*
X120165D01*
X90835D02*
Y184866D01*
X120165D01*
Y143134D02*
Y184866D01*
X51181Y37532D02*
Y41469D01*
X49213Y39500D02*
X53150D01*
X72031Y87800D02*
X75968D01*
X74000Y85831D02*
Y89768D01*
D137*
X45707Y113000D02*
G03*
X45707Y113000I-707J0D01*
G01*
X44293Y112293D02*
X45707Y113707D01*
X44293D02*
X45707Y112293D01*
M02*
