G04*
G04 #@! TF.GenerationSoftware,Altium Limited,Altium Designer,21.0.8 (223)*
G04*
G04 Layer_Color=16711935*
%FSLAX25Y25*%
%MOIN*%
G70*
G04*
G04 #@! TF.SameCoordinates,947A2CD8-D87E-4BA2-AADF-D00DD91F1A07*
G04*
G04*
G04 #@! TF.FilePolarity,Negative*
G04*
G01*
G75*
%ADD61R,0.22800X0.50700*%
%ADD76R,0.03800X0.03800*%
%ADD77R,0.03800X0.03800*%
%ADD98R,0.03162X0.05918*%
%ADD108C,0.07493*%
%ADD109R,0.07493X0.07493*%
%ADD110O,0.05131X0.07882*%
%ADD111C,0.04737*%
%ADD112R,0.07493X0.07493*%
%ADD113R,0.04737X0.04737*%
%ADD132R,0.04737X0.03162*%
D61*
X11400Y79150D02*
D03*
D76*
X131841Y265000D02*
D03*
X136959D02*
D03*
X131841Y270300D02*
D03*
X136959D02*
D03*
X89659Y379341D02*
D03*
X84541D02*
D03*
X89659Y374000D02*
D03*
X84541Y374000D02*
D03*
X74473Y44106D02*
D03*
X30541Y100000D02*
D03*
X341613Y105941D02*
D03*
X328941Y83000D02*
D03*
X165059Y310100D02*
D03*
X165059Y304100D02*
D03*
X341559Y111900D02*
D03*
X159941Y304100D02*
D03*
Y310100D02*
D03*
X69354Y38107D02*
D03*
X74472D02*
D03*
X69355Y44106D02*
D03*
X40441Y66900D02*
D03*
X46559D02*
D03*
X35659Y100000D02*
D03*
X336441Y111900D02*
D03*
X336495Y105941D02*
D03*
X334059Y83000D02*
D03*
D77*
X109900Y381859D02*
D03*
Y376741D02*
D03*
X119300Y348259D02*
D03*
Y343141D02*
D03*
X144400Y330259D02*
D03*
Y325141D02*
D03*
X40700Y85959D02*
D03*
X35000Y94059D02*
D03*
X256400Y83559D02*
D03*
X137500D02*
D03*
X177200D02*
D03*
X216800Y83459D02*
D03*
X35000Y82400D02*
D03*
Y76282D02*
D03*
X40700Y80841D02*
D03*
X35000Y88941D02*
D03*
X256400Y78441D02*
D03*
X137500D02*
D03*
X177200D02*
D03*
X216800Y78341D02*
D03*
D98*
X203260Y78366D02*
D03*
X242260D02*
D03*
X123760D02*
D03*
X162760D02*
D03*
X210740D02*
D03*
X207000Y86634D02*
D03*
X249740Y78366D02*
D03*
X246000Y86634D02*
D03*
X131240Y78366D02*
D03*
X127500Y86634D02*
D03*
X170240Y78366D02*
D03*
X166500Y86634D02*
D03*
D108*
X361453Y110000D02*
D03*
X123500Y54370D02*
D03*
X11500Y329000D02*
D03*
Y275500D02*
D03*
X174500Y170500D02*
D03*
X123500Y44370D02*
D03*
Y34370D02*
D03*
X11500Y369000D02*
D03*
Y359000D02*
D03*
Y349000D02*
D03*
Y339000D02*
D03*
X9000Y247500D02*
D03*
X11500Y285500D02*
D03*
Y295500D02*
D03*
X174500Y190500D02*
D03*
Y180500D02*
D03*
D109*
X351453Y110000D02*
D03*
X123500Y24370D02*
D03*
X9000Y237500D02*
D03*
D110*
X327509Y20685D02*
D03*
X293493D02*
D03*
X327509Y5725D02*
D03*
X293493D02*
D03*
D111*
X74000Y82839D02*
D03*
Y97603D02*
D03*
Y92682D02*
D03*
Y87761D02*
D03*
D112*
X11500Y379000D02*
D03*
Y305500D02*
D03*
X174500Y160500D02*
D03*
D113*
X74000Y77918D02*
D03*
D132*
X103337Y376700D02*
D03*
X95463Y380440D02*
D03*
Y372960D02*
D03*
X112237Y342900D02*
D03*
X104363Y346640D02*
D03*
Y339160D02*
D03*
M02*
