G04*
G04 #@! TF.GenerationSoftware,Altium Limited,Altium Designer,21.0.8 (223)*
G04*
G04 Layer_Color=128*
%FSLAX25Y25*%
%MOIN*%
G70*
G04*
G04 #@! TF.SameCoordinates,947A2CD8-D87E-4BA2-AADF-D00DD91F1A07*
G04*
G04*
G04 #@! TF.FilePolarity,Positive*
G04*
G01*
G75*
%ADD27R,0.03000X0.03000*%
%ADD28R,0.03000X0.03000*%
%ADD49R,0.02362X0.05118*%
%ADD129R,0.03937X0.02362*%
D27*
X131841Y265000D02*
D03*
X136959D02*
D03*
X131841Y270300D02*
D03*
X136959D02*
D03*
X89659Y379341D02*
D03*
X84541D02*
D03*
X89659Y374000D02*
D03*
X84541Y374000D02*
D03*
X74473Y44106D02*
D03*
X30541Y100000D02*
D03*
X341613Y105941D02*
D03*
X328941Y83000D02*
D03*
X165059Y310100D02*
D03*
X165059Y304100D02*
D03*
X341559Y111900D02*
D03*
X159941Y304100D02*
D03*
Y310100D02*
D03*
X69354Y38107D02*
D03*
X74472D02*
D03*
X69355Y44106D02*
D03*
X40441Y66900D02*
D03*
X46559D02*
D03*
X35659Y100000D02*
D03*
X336441Y111900D02*
D03*
X336495Y105941D02*
D03*
X334059Y83000D02*
D03*
D28*
X109900Y381859D02*
D03*
Y376741D02*
D03*
X119300Y348259D02*
D03*
Y343141D02*
D03*
X144400Y330259D02*
D03*
Y325141D02*
D03*
X40700Y85959D02*
D03*
X35000Y94059D02*
D03*
X256400Y83559D02*
D03*
X137500D02*
D03*
X177200D02*
D03*
X216800Y83459D02*
D03*
X35000Y82400D02*
D03*
Y76282D02*
D03*
X40700Y80841D02*
D03*
X35000Y88941D02*
D03*
X256400Y78441D02*
D03*
X137500D02*
D03*
X177200D02*
D03*
X216800Y78341D02*
D03*
D49*
X203260Y78366D02*
D03*
X242260D02*
D03*
X123760D02*
D03*
X162760D02*
D03*
X210740D02*
D03*
X207000Y86634D02*
D03*
X249740Y78366D02*
D03*
X246000Y86634D02*
D03*
X131240Y78366D02*
D03*
X127500Y86634D02*
D03*
X170240Y78366D02*
D03*
X166500Y86634D02*
D03*
D129*
X103337Y376700D02*
D03*
X95463Y380440D02*
D03*
Y372960D02*
D03*
X112237Y342900D02*
D03*
X104363Y346640D02*
D03*
Y339160D02*
D03*
M02*
