M48
;Layer_Color=9474304
;FILE_FORMAT=2:5
INCH,LZ
;TYPE=PLATED
T1F00S00C0.00787
T2F00S00C0.01000
T3F00S00C0.01181
T4F00S00C0.01968
T6F00S00C0.03543
%
T01
X024974Y007356
X0334224Y008324
X0331496Y0044882
X034811Y001937
X021074Y007356
X017024
X013124
X00584Y00864
X00591Y00991
X00825Y03621
X00865Y03623
X00904
X00884Y03597
X00923Y03596
X01022Y03597
X01101Y03595
X0114Y0371
X01179Y03705
Y03808
X0114Y03884
X00943Y0370493
T02
X038937Y0044488
Y0049409
Y0054331
X0389764Y0068242
Y0073228
Y0078215
Y0083202
Y0088189
X0384842
X0379921
Y0083202
X0384842
Y0078215
X0379921
Y0073228
X0384842
X0384842Y0068242
X0379921
X0379396Y0054331
Y0049409
Y0044488
X0384383
Y0049409
Y0054331
X037441
Y0049409
Y0044488
X0369423
Y0049409
Y0054331
X0370735Y003189
Y0026969
Y0022047
X0375722
Y0026969
Y003189
X0380709
Y0026969
Y0022047
X0365748
Y0026969
Y003189
X0360761
Y0026969
Y0022047
X0359186Y0013386
Y0008465
Y0003543
X0364173
Y0008465
Y0013386
X03542
Y0008465
Y0003543
X0349213
Y0008465
Y0013386
X0344226
Y0008465
Y0003543
X0320079Y0004331
Y0009252
Y0014173
X0315092
Y0009252
Y0004331
X0310105
Y0009252
Y0014173
X0305118
Y0009252
Y0004331
X0300131
Y0009252
Y0014173
X0283858Y0014961
Y0019882
Y0024803
X0278871
Y0019882
Y0014961
X0273885
Y0019882
Y0024803
X0268898
Y0019882
Y0014961
X0263911
Y0019882
Y0024803
X0258924
Y0019882
Y0014961
X0253937
Y0019882
Y0024803
X024895
Y0019882
Y0014961
X0243963
Y0019882
Y0024803
X0238976
Y0019882
Y0014961
X02326Y00798
Y00868
X0235714Y01005
X0242343
X0248971
X02556
Y01075
X0248971
X0242343
X0235714
X02565Y0093508
X0263771Y00875
X02704
Y00805
X0263771
X02564Y00785
X02826Y01115
X0229086Y01075
X0222457
X0215829
X02092
Y01005
X0215829
X0222457
X0229086
X0225971Y00868
Y00798
X0216834Y0078409
Y0093508
X01942Y01003
X0187571
X0180943
X0174314
X0167686
X0161057
X0154429
X01478
Y01073
X0154429
X0161057
X0167686
X0174314
X0180943
X0187571
X01942
X01925Y00866
X0185871
Y00796
X01925
X0177167Y0078409
Y0093508
X01534Y00863
X0146771
Y00793
X01534
X01375Y0078409
Y0093508
X00975Y0090243
Y0096871
Y01035
X00905
Y0096871
Y0090243
Y0083614
Y0076986
X00975
Y0083614
X00968Y00573
Y0050671
Y0044043
Y0037414
X00898
Y0044043
Y0050671
Y00573
X0079Y0024
X0143286Y00257
X0149914
X0156543
X0163171
X01698
Y00187
X0163171
X0156543
X0149914
X0143286
X0150886Y00483
X0157514
X0164143
X0170771
X01774
Y00553
X0170771
X0164143
X0157514
X0150886
X0208399Y0024803
Y0019882
Y0014961
X0213386
Y0019882
Y0024803
X0218373
Y0019882
Y0014961
X022336
Y0019882
Y0024803
X0228346
Y0019882
Y0014961
X0079Y01062
X0079044Y01119
X00563Y01091
X00537Y01055
X00495Y01023
X0046306Y0100294
X00426Y01043
X00363Y0104
X00356Y01001
X00355Y01082
X00325Y01122
X00236Y01053
X00204Y01056
X0017Y01057
X00131Y01056
X0009
X00055Y01055
X00016Y01056
X00235Y01017
X00233Y00986
Y00933
Y00896
X00232Y00856
Y00822
Y00784
X00233Y00744
X00232Y00707
Y00663
Y00618
X00233Y00578
X00231Y00533
X00183
X00137Y00532
X00086
X00031Y00533
X001215Y002885
X0016837Y0024163
X0021524Y0019476
X0026212Y0014789
X0030899Y0010102
X0035848Y0015052
X0031161Y0019739
X0026474Y0024426
X0021787Y0029113
X00171Y00338
X00405Y0067
X0039004Y0071396
X0036104
X00465Y0067
X0056Y00676
X00583Y00747
Y00773
X0058286Y0083908
X00465Y0084786
Y0091414
X00395
Y0084786
X0029167Y0086021
Y00887
X0027124Y0091024
X00297Y00934
X00291Y0083
X00456Y01079
X0074279Y0028476
X00557Y01159
X0052Y01197
X00488Y01227
X00457Y01256
X0041Y01243
X00372Y01211
X00335Y01175
X00443Y01184
X00412Y0144686
Y0151314
Y0157943
Y0164571
Y01712
X00342
Y0164571
Y0157943
Y0151314
Y0144686
X00158Y0144071
Y0137443
Y0130814
Y0124186
X00088
Y0130814
Y0137443
Y0144071
Y01507
X00158
X00156Y0165986
Y0172614
Y0179243
Y0185871
Y01925
X00086
Y0185871
Y0179243
Y0172614
Y0165986
X00589Y02022
X0065529
X0072157
X0072157Y02092
X0065529
X00589
X00586Y02564
Y0263029
X00586Y0269657
X00516Y0269657
Y0263029
Y02564
X00688Y02562
Y0262829
Y0269457
X00758Y0269457
X00758Y0262829
Y02562
X0020383Y0261764
Y0268392
X0090786Y02585
X0097414
X0104043Y02585
X0110671Y02585
X01173
Y02515
X0110671
X0104043
X0097414
X0090786
X0085414Y02092
X0078786
Y02022
X0085414
X01035
X0110129
X0116757
X0123386
X0130014
Y02092
X0123386
X0116757
X0110129
X01035
X01019Y0180814
X01019Y0174186
Y0167557
X01019Y0160929
X01019Y01543
X01089
Y0160929
Y0167557
Y0174186
Y0180814
X00885Y01716
Y01666
X0085729Y01361
X00791
Y01291
X0085729
X0092357
X0098986
X0105614
X0112243
X0118871
X01255
Y01361
X0118871
X0112243
X0105614
X0098986
X0092357
Y01221
X0085729
X00791
X0098986
X0105614
X0112243
X0118871
X01255
X0137041Y0157859
X0141928Y0265272
X0141628Y0270272
X0141672Y0275272
X0141872Y0280272
X0141672Y0285272
X0142072Y0290272
X0141759Y0300272
X014794Y030336
X014814Y031084
X01281Y03254
X0129028Y0330272
X01056Y03502
X00989Y03487
X00846Y03712
X0124786Y0380628
X0131786
X0144764Y0382816
X0151392
X0158021Y0382816
X0158021Y0389816
X0151392
X0144764
X0149617Y0367136
Y0360508
X0149616Y0353879
X0156616Y0353879
Y0360508
Y0367136
X0170916Y0367136
Y0360508
X0170916Y0353879
X0177917Y0353879
Y0360508
Y0367136
X01794Y02981
X01757
X0172
Y029365
X01757
X01794
Y02892
X01757
X0172
X01681Y02952
X00692Y02949
Y0301529
X00692Y0308157
X00692Y0314786
Y0321414
X00622
Y0314786
Y0308157
Y0301529
Y02949
X00529Y02942
Y0300829
X00529Y0307457
X00529Y0314086
Y0320714
X00459
Y0314086
Y0307457
Y0300829
Y02942
X00516Y0282914
Y0276286
X00586
Y0282914
X00688Y0282714
Y0276086
X00758
Y0282714
X00267Y02953
X0024425Y0300025
X0020383Y0275021
X00412Y03481
Y0354729
Y0361357
Y0367986
Y0374614
X0068486Y0372199
Y0378828
X0075486
Y0372199
T03
X0329921Y0061811
Y0066142
Y0070866
X0320472Y0079528
X0316929
T04
X0074Y0077918
Y0082839
Y0087761
Y0092682
Y0097603
T06
X0351453Y011
X0361453
X01235Y005437
Y004437
Y003437
Y002437
X0009Y02375
Y02475
X01745Y01905
Y01805
Y01705
Y01605
X00115Y02755
Y02855
Y02955
Y03055
Y0329
Y0339
Y0349
Y0359
Y0369
Y0379
M30
