G04*
G04 #@! TF.GenerationSoftware,Altium Limited,Altium Designer,21.0.8 (223)*
G04*
G04 Layer_Color=32896*
%FSLAX25Y25*%
%MOIN*%
G70*
G04*
G04 #@! TF.SameCoordinates,947A2CD8-D87E-4BA2-AADF-D00DD91F1A07*
G04*
G04*
G04 #@! TF.FilePolarity,Positive*
G04*
G01*
G75*
%ADD11C,0.00984*%
%ADD13C,0.00800*%
%ADD14C,0.00600*%
%ADD17C,0.00787*%
D11*
X95955Y369613D02*
G03*
X95955Y369613I-492J0D01*
G01*
X104855Y335813D02*
G03*
X104855Y335813I-492J0D01*
G01*
X214579Y78366D02*
G03*
X214579Y78366I-492J0D01*
G01*
X253579D02*
G03*
X253579Y78366I-492J0D01*
G01*
X135079D02*
G03*
X135079Y78366I-492J0D01*
G01*
X174079D02*
G03*
X174079Y78366I-492J0D01*
G01*
D13*
X129282Y262441D02*
X139518D01*
X129282D02*
Y267559D01*
X139518D01*
Y262441D02*
Y267559D01*
X129282Y267741D02*
X139518D01*
X129282D02*
Y272859D01*
X139518D01*
Y267741D02*
Y272859D01*
X112459Y374182D02*
Y377800D01*
X107341Y374182D02*
Y377800D01*
X112459Y380800D02*
Y384418D01*
X107341Y380800D02*
Y384418D01*
X112459D01*
X107341Y374182D02*
X112459D01*
X81982Y376782D02*
X85600D01*
X81982Y381900D02*
X85600D01*
X88600Y376782D02*
X92218D01*
X88600Y381900D02*
X92218D01*
Y376782D02*
Y381900D01*
X81982Y376782D02*
Y381900D01*
X81982Y371441D02*
X85600D01*
X81982Y376559D02*
X85600D01*
X88600Y371441D02*
X92218D01*
X88600Y376559D02*
X92218Y376559D01*
Y371441D02*
Y376559D01*
X81982Y376559D02*
X81982Y371441D01*
X121859Y340582D02*
Y344200D01*
X116741Y340582D02*
Y344200D01*
X121859Y347200D02*
Y350818D01*
X116741Y347200D02*
Y350818D01*
X121859D01*
X116741Y340582D02*
X121859D01*
X141841Y322582D02*
Y332818D01*
X146959D01*
Y322582D02*
Y332818D01*
X141841Y322582D02*
X146959D01*
X157382Y301541D02*
Y306659D01*
Y301541D02*
X167618D01*
Y306659D01*
X157382D02*
X167618D01*
X157382Y307541D02*
Y312659D01*
Y307541D02*
X167618D01*
Y312659D01*
X157382D02*
X167618D01*
X66795Y35548D02*
Y40666D01*
Y35548D02*
X77031D01*
Y40666D01*
X66795D02*
X77031D01*
X66796Y41547D02*
Y46665D01*
X77032Y41547D02*
Y46665D01*
X73413D02*
X77032D01*
X73413Y41547D02*
X77032D01*
X66796Y46665D02*
X70413D01*
X66796Y41547D02*
X70413D01*
X46500Y69300D02*
X48983D01*
X38018D02*
X40500D01*
X38018Y64500D02*
Y69300D01*
Y64500D02*
X40500D01*
X46500D02*
X48983D01*
X48983Y69300D02*
X48983Y64500D01*
X37400Y73859D02*
Y76341D01*
Y82341D02*
Y84823D01*
X32600D02*
X37400D01*
X32600Y82341D02*
Y84823D01*
Y73859D02*
Y76341D01*
Y73859D02*
X37400Y73859D01*
X38141Y88518D02*
X43259D01*
X38141Y78282D02*
X43259D01*
Y81900D01*
X38141Y78282D02*
Y81900D01*
X43259Y84900D02*
Y88518D01*
X38141Y84900D02*
Y88518D01*
X32441Y96618D02*
X37559D01*
X32441Y86382D02*
X37559D01*
Y90000D01*
X32441Y86382D02*
Y90000D01*
X37559Y93000D02*
Y96618D01*
X32441Y93000D02*
Y96618D01*
X27982Y97441D02*
Y102559D01*
X38218Y97441D02*
Y102559D01*
X34600D02*
X38218D01*
X34600Y97441D02*
X38218D01*
X27982Y102559D02*
X31600D01*
X27982Y97441D02*
X31600D01*
X253841Y75882D02*
X258959D01*
Y86118D01*
X253841D02*
X258959D01*
X253841Y75882D02*
Y86118D01*
X134941Y75882D02*
X140059D01*
Y86118D01*
X134941D02*
X140059D01*
X134941Y75882D02*
Y86118D01*
X174641Y75882D02*
X179759D01*
Y86118D01*
X174641D02*
X179759D01*
X174641Y75882D02*
Y86118D01*
X214241Y75782D02*
X219359D01*
Y86018D01*
X214241D02*
X219359D01*
X214241Y75782D02*
Y86018D01*
X333882Y109341D02*
Y114459D01*
Y109341D02*
X344118D01*
Y114459D01*
X333882D02*
X344118D01*
X344172Y103382D02*
Y108500D01*
X333936D02*
X344172D01*
X333936Y103382D02*
Y108500D01*
Y103382D02*
X344172D01*
X326382Y80441D02*
Y85559D01*
Y80441D02*
X336618D01*
Y85559D01*
X326382D02*
X336618D01*
D14*
X109900Y379000D02*
Y379300D01*
Y379600D01*
X109000Y379300D02*
X110800D01*
X86800Y379341D02*
X87100Y379341D01*
X87400D01*
X87100Y378441D02*
Y380241D01*
X86800Y374000D02*
X87100Y374000D01*
X87400D01*
X87100Y373100D02*
Y374900D01*
X119300Y345400D02*
Y345700D01*
Y346000D01*
X118400Y345700D02*
X120200D01*
X71913Y43206D02*
Y45006D01*
Y44106D02*
X72213D01*
X71613D02*
X71913D01*
X39800Y83400D02*
X41600D01*
X40700Y83100D02*
Y83400D01*
Y83700D01*
X34100Y91500D02*
X35900D01*
X35000Y91200D02*
Y91500D01*
Y91800D01*
X33100Y99100D02*
Y100900D01*
Y100000D02*
X33400D01*
X32800D02*
X33100D01*
D17*
X102156Y379456D02*
Y382606D01*
X99006D02*
X102156D01*
Y370795D02*
Y373944D01*
X99006Y370795D02*
X102156D01*
X111056Y345656D02*
Y348805D01*
X107906D02*
X111056D01*
Y336995D02*
Y340144D01*
X107906Y336995D02*
X111056D01*
X212906Y82500D02*
Y85256D01*
X209756D02*
X212906D01*
X201095Y82500D02*
Y85256D01*
X204244D01*
X251905Y82500D02*
Y85256D01*
X248756D02*
X251905D01*
X240094Y82500D02*
Y85256D01*
X243244D01*
X133405Y82500D02*
Y85256D01*
X130256D02*
X133405D01*
X121595Y82500D02*
Y85256D01*
X124744D01*
X172406Y82500D02*
Y85256D01*
X169256D02*
X172406D01*
X160594Y82500D02*
Y85256D01*
X163744D01*
M02*
